<?xml version="1.0" encoding="UTF-8" standalone="no"?><!DOCTYPE svg PUBLIC "-//W3C//DTD SVG 1.1//EN" "http://www.w3.org/Graphics/SVG/1.1/DTD/svg11.dtd"><svg width="100%" height="100%" viewBox="0 0 57 72" version="1.1" xmlns="http://www.w3.org/2000/svg" xmlns:xlink="http://www.w3.org/1999/xlink" xml:space="preserve" xmlns:serif="http://www.serif.com/" style="fill-rule:evenodd;clip-rule:evenodd;stroke-linejoin:round;stroke-miterlimit:2;"><g><path d="M56.598,32.664l-11.357,-6.556l-11.253,6.544l-0.018,6.544l11.315,6.533l11.313,-6.532l-0,-6.533Z" style="fill:#72552b;"/><path d="M11.336,6.532l-11.314,-6.532l0.001,19.597l11.313,-6.532l-0,-6.533Z" style="fill:#72552b;"/><path d="M33.97,45.734l-16.975,-9.803l16.972,-9.8l0,-6.532l-11.315,-6.533l-22.63,13.065l-0,19.599l5.657,3.266l-5.657,3.267l-0,19.598l33.948,-19.594l-0,-6.533Z" style="fill:#72552b;"/><path d="M56.598,32.664l-11.314,6.534l-0.001,6.532l11.314,-6.533l0.001,-6.533Z" style="fill:#72552b;"/><path d="M0.022,65.329l-0,6.532l11.315,-6.532l-0,-6.533l-11.315,6.533Z" style="fill:#7f612e;"/><path d="M11.337,58.796l-0,6.533l11.315,-6.533l0,-6.533l-11.315,6.533Z" style="fill:#6d5527;"/><path d="M11.337,32.664l5.659,3.267l5.656,-3.267l0,-6.533l-11.315,6.533Z" style="fill:#6f5228;"/><path d="M45.283,39.197l-0,6.533l-11.316,-6.533l0,-6.533l11.316,6.533Z" style="fill:#3e301c;"/><path d="M0.022,39.197l11.315,6.533l-5.658,3.266l-5.657,-3.266l-0,-6.533Z" style="fill:#3e301c;"/><path d="M11.359,6.52l-11.337,6.546l-0.022,6.544l11.337,-6.546l0.022,-6.544Z" style="fill:#755b28;"/><path d="M22.652,26.131l0,6.533l11.315,-6.533l0,-6.532l-11.315,6.532Z" style="fill:#654c28;"/><path d="M22.652,52.263l0,6.533l11.315,-6.533l0,-6.533l-11.315,6.533Z" style="fill:#6f5228;"/><path d="M0.022,52.263l-0,13.066l11.315,-6.533l-11.315,-6.533Z" style="fill:#5bea00;"/><path d="M0.022,0l-0,13.066l11.315,-6.533l-11.315,-6.533Z" style="fill:#68ff09;"/><path d="M11.337,45.73l11.315,6.533l-11.315,6.533l-11.315,-6.533l11.315,-6.533Z" style="fill:#55ba14;"/><path d="M11.337,32.664l11.315,6.533l-11.315,6.533l-11.315,-6.533l11.315,-6.533Z" style="fill:#5cda00;"/><path d="M0.022,26.131l-0,13.066l11.315,-6.533l-11.315,-6.533Z" style="fill:#55ba14;"/><path d="M11.337,19.599l-11.315,6.532l11.315,6.533l11.315,-6.533l-11.315,-6.532Z" style="fill:#68ff09;"/><path d="M22.652,39.197l11.315,6.533l-11.315,6.533l-11.315,-6.533l11.315,-6.533Z" style="fill:#58c700;"/><path d="M22.652,13.066l-11.315,6.533l11.315,6.532l11.315,-6.532l-11.315,-6.533Z" style="fill:#65c700;"/><path d="M45.283,26.131l-11.316,6.533l11.316,6.533l11.315,-6.533l-11.315,-6.533Z" style="fill:#68ff09;"/></g></svg>