<?xml version="1.0" encoding="UTF-8" standalone="no"?><!DOCTYPE svg PUBLIC "-//W3C//DTD SVG 1.1//EN" "http://www.w3.org/Graphics/SVG/1.1/DTD/svg11.dtd"><svg width="100%" height="100%" viewBox="0 0 428 104" version="1.1" xmlns="http://www.w3.org/2000/svg" xmlns:xlink="http://www.w3.org/1999/xlink" xml:space="preserve" xmlns:serif="http://www.serif.com/" style="fill-rule:evenodd;clip-rule:evenodd;stroke-linejoin:round;stroke-miterlimit:2;"><g><path d="M81.361,46.956l-16.325,-9.426l-16.177,9.409l-0.027,9.406l16.266,9.391l16.263,-9.389l-0,-9.391Z" style="fill:#72552b;"/><path d="M16.296,9.39l-16.265,-9.39l0.002,28.171l16.263,-9.39l-0,-9.391Z" style="fill:#72552b;"/><path d="M48.832,65.743l-24.402,-14.092l24.399,-14.086l-0,-9.392l-16.266,-9.391l-32.532,18.783l0,28.173l8.133,4.696l-8.133,4.695l0,28.174l48.801,-28.168l0,-9.392Z" style="fill:#72552b;"/><path d="M81.361,46.956l-16.265,9.392l-0.001,9.39l16.264,-9.392l0.002,-9.39Z" style="fill:#72552b;"/><path d="M0.031,93.911l0,9.392l16.266,-9.392l0,-9.391l-16.266,9.391Z" style="fill:#7f612e;"/><path d="M16.297,84.52l0,9.391l16.266,-9.391l0,-9.391l-16.266,9.391Z" style="fill:#6d5527;"/><path d="M16.297,46.956l8.135,4.696l8.131,-4.696l0,-9.391l-16.266,9.391Z" style="fill:#6f5228;"/><path d="M65.095,56.347l-0,9.391l-16.266,-9.391l-0,-9.391l16.266,9.391Z" style="fill:#3e301c;"/><path d="M0.031,56.347l16.266,9.391l-8.133,4.696l-8.133,-4.696l0,-9.391Z" style="fill:#3e301c;"/><path d="M16.328,9.373l-16.297,9.409l-0.031,9.408l16.297,-9.41l0.031,-9.407Z" style="fill:#755b28;"/><path d="M32.563,37.565l0,9.391l16.266,-9.391l-0,-9.392l-16.266,9.392Z" style="fill:#654c28;"/><path d="M32.563,75.129l0,9.391l16.266,-9.391l-0,-9.391l-16.266,9.391Z" style="fill:#6f5228;"/><path d="M0.031,75.129l0,18.782l16.266,-9.391l-16.266,-9.391Z" style="fill:#5bea00;"/><path d="M0.031,0l0,18.782l16.266,-9.391l-16.266,-9.391Z" style="fill:#68ff09;"/><path d="M16.297,65.738l16.266,9.391l-16.266,9.391l-16.266,-9.391l16.266,-9.391Z" style="fill:#55ba14;"/><path d="M16.297,46.956l16.266,9.391l-16.266,9.391l-16.266,-9.391l16.266,-9.391Z" style="fill:#5cda00;"/><path d="M0.031,37.565l0,18.782l16.266,-9.391l-16.266,-9.391Z" style="fill:#55ba14;"/><path d="M16.297,28.173l-16.266,9.392l16.266,9.391l16.266,-9.391l-16.266,-9.392Z" style="fill:#68ff09;"/><path d="M32.563,56.347l16.266,9.391l-16.266,9.391l-16.266,-9.391l16.266,-9.391Z" style="fill:#58c700;"/><path d="M32.563,18.782l-16.266,9.391l16.266,9.392l16.266,-9.392l-16.266,-9.391Z" style="fill:#65c700;"/><path d="M65.095,37.565l-16.266,9.391l16.266,9.391l16.266,-9.391l-16.266,-9.391Z" style="fill:#68ff09;"/></g><g transform="matrix(0.546424,0,0,0.546424,-1729.83,-3434.63)"><text x="3328.12px" y="6365.15px" style="font-family:'Simpel-Medium', 'Simpel';font-weight:500;font-size:101.155px;fill:#fff;">S<tspan x="3386.89px 3443.54px 3484.71px 3532.25px 3588.9px 3630.07px 3687.83px 3722.53px 3782.41px 3820.55px 3855.24px 3911.89px " y="6365.15px 6365.15px 6365.15px 6365.15px 6365.15px 6365.15px 6365.15px 6365.15px 6365.15px 6365.15px 6365.15px 6365.15px ">erverStarter</tspan></text><text x="3385.35px" y="6466.31px" style="font-family:'Simpel-Medium', 'Simpel';font-weight:500;font-size:73.367px;fill:#fff;"><tspan x="3385.35px 3410.29px 3451.38px " y="6466.31px 6466.31px 6466.31px ">for</tspan></text><g transform="matrix(101.155,0,0,101.155,3874.83,6466.31)"><path d="M0.588,-0.408l0.116,-0l-0,-0.092l-0.116,0l-0,-0.218l-0.098,0.03l0,0.188l-0.242,0l-0,-0.112c-0,-0.052 0.037,-0.09 0.082,-0.09c0.014,-0 0.027,0.003 0.038,0.011l0.042,-0.086c-0.026,-0.011 -0.053,-0.017 -0.08,-0.017c-0.1,0 -0.181,0.082 -0.181,0.183l0,0.111l-0.089,0l0,0.092l0.089,-0l0,0.408l0.099,-0l-0,-0.408l0.242,-0l0,0.246c0,0.113 0.057,0.17 0.166,0.17l-0,-0.1c-0.042,0 -0.068,-0.024 -0.068,-0.07l-0,-0.246Z" style="fill:#fff;fill-rule:nonzero;"/></g><text x="3507.54px" y="6466.31px" style="font-family:'Simpel-Medium', 'Simpel';font-weight:500;font-size:101.155px;fill:#fff;"><tspan x="3507.54px 3588.16px 3611.93px 3666.56px 3723.2px 3778.84px 3814.95px " y="6466.31px 6466.31px 6466.31px 6466.31px 6466.31px 6466.31px 6466.31px ">Minecra</tspan></text></g></svg>