<?xml version="1.0" encoding="UTF-8" standalone="no"?>
<!DOCTYPE svg PUBLIC "-//W3C//DTD SVG 1.1//EN" "http://www.w3.org/Graphics/SVG/1.1/DTD/svg11.dtd">
<svg width="100%" height="100%" viewBox="0 0 378 378" version="1.1" xmlns="http://www.w3.org/2000/svg" xmlns:xlink="http://www.w3.org/1999/xlink" xml:space="preserve" xmlns:serif="http://www.serif.com/" style="fill-rule:evenodd;clip-rule:evenodd;stroke-linejoin:round;stroke-miterlimit:2;">
    <g transform="matrix(1,0,0,1,-18820.2,-9131.1)">
        <g transform="matrix(1,0,0,1,-0.755576,-0.944882)">
            <g transform="matrix(0.5,0,0,1,9292.76,473.386)">
                <rect x="19056.4" y="8658.66" width="377.953" height="377.953" style="fill:rgb(44,47,55);"/>
            </g>
        </g>
        <g transform="matrix(1,0,0,1,-0.755576,-0.944882)">
            <g transform="matrix(0.375,0,0,0.75,11722.1,2685.3)">
                <rect x="19056.4" y="8658.66" width="377.953" height="377.953" style="fill:rgb(12,18,31);"/>
            </g>
        </g>
        <g transform="matrix(1,0,0,1,-0.755576,-0.944882)">
            <g transform="matrix(0.5,0,0,1,9481.73,473.386)">
                <rect x="19056.4" y="8658.66" width="377.953" height="377.953" style="fill:rgb(255,213,74);"/>
            </g>
        </g>
        <g transform="matrix(1,0,0,1,-0.755576,-0.944882)">
            <g transform="matrix(0.375,0,0,0.75,11863.8,2685.3)">
                <rect x="19056.4" y="8658.66" width="377.953" height="377.953" style="fill:rgb(255,255,170);"/>
            </g>
        </g>
        <g transform="matrix(1,0,0,1,-0.755576,-0.944882)">
            <g transform="matrix(0.25,0,0,0.5,14245.8,4897.2)">
                <rect x="19056.4" y="8658.66" width="377.953" height="377.953" style="fill:rgb(255,255,217);"/>
            </g>
        </g>
    </g>
</svg>
