<?xml version="1.0" encoding="UTF-8" standalone="no"?><!DOCTYPE svg PUBLIC "-//W3C//DTD SVG 1.1//EN" "http://www.w3.org/Graphics/SVG/1.1/DTD/svg11.dtd"><svg width="100%" height="100%" viewBox="0 0 541 541" version="1.1" xmlns="http://www.w3.org/2000/svg" xmlns:xlink="http://www.w3.org/1999/xlink" xml:space="preserve" xmlns:serif="http://www.serif.com/" style="fill-rule:evenodd;clip-rule:evenodd;stroke-linejoin:round;stroke-miterlimit:2;"><rect id="アートボード4" x="0" y="0" width="540.073" height="540.073" style="fill:none;"/><rect x="285.686" y="238.11" width="181.417" height="181.417" style="fill:#f2f2f2;"/><g><g><path d="M327.298,243.78l24.548,14.173l-24.548,14.173l-0,-28.346Z" style="fill:#262626;"/><path d="M327.298,300.472l49.097,-28.346l24.549,14.173l-49.098,28.347l49.098,28.346l-73.646,42.52l-0,-28.347l24.548,-14.173l-24.548,-14.173l-0,-28.347Z" style="fill:#262626;"/><path d="M425.493,300.472l-24.549,14.174l24.549,14.173l24.548,-14.173l-24.548,-14.174Z" style="fill:#262626;"/></g><g><path d="M425.493,413.858l-24.549,-14.173l24.549,-14.173l-0,28.346Z" style="fill:#999;"/><path d="M425.493,357.165l-49.098,28.347l-24.549,-14.173l49.098,-28.347l-49.098,-28.346l73.647,-42.52l-0,28.346l-24.549,14.174l24.549,14.173l-0,28.346Z" style="fill:#999;"/><path d="M327.298,357.165l24.548,-14.173l-24.548,-14.173l-24.549,14.173l24.549,14.173Z" style="fill:#999;"/></g></g><g><path d="M497.294,128.206l-23.888,-13.792l-23.672,13.767l-0.039,13.765l23.802,13.742l23.797,-13.74l0,-13.742Z" style="fill:#72552b;"/><path d="M402.085,73.237l-23.8,-13.741l0.002,41.222l23.798,-13.739l-0,-13.742Z" style="fill:#72552b;"/><path d="M449.695,155.698l-35.707,-20.621l35.703,-20.613l-0,-13.742l-23.802,-13.742l-47.604,27.484l-0,41.226l11.901,6.871l-11.901,6.871l-0,41.226l71.41,-41.218l0,-13.742Z" style="fill:#72552b;"/><path d="M497.294,128.206l-23.799,13.744l-0.002,13.74l23.799,-13.743l0.002,-13.741Z" style="fill:#4d4d4d;"/><path d="M378.285,196.916l-0,13.742l23.802,-13.742l-0,-13.742l-23.802,13.742Z" style="fill:#666;"/><path d="M402.087,183.174l-0,13.742l23.802,-13.742l-0,-13.742l-23.802,13.742Z" style="fill:#595959;"/><path d="M402.087,128.206l11.903,6.873l11.899,-6.873l-0,-13.742l-23.802,13.742Z" style="fill:#404040;"/><path d="M473.493,141.948l-0,13.742l-23.802,-13.742l-0,-13.742l23.802,13.742Z" style="fill:#1a1a1a;"/><path d="M378.285,141.948l23.802,13.742l-11.901,6.871l-11.901,-6.871l-0,-13.742Z" style="fill:#262626;"/><path d="M402.132,73.212l-23.847,13.768l-0.046,13.766l23.848,-13.769l0.045,-13.765Z" style="fill:#666;"/><path d="M425.889,114.464l-0,13.742l23.802,-13.742l-0,-13.742l-23.802,13.742Z" style="fill:#4d4d4d;"/><path d="M425.889,169.432l-0,13.742l23.802,-13.742l-0,-13.742l-23.802,13.742Z" style="fill:#404040;"/><path d="M378.285,169.432l-0,27.484l23.802,-13.742l-23.802,-13.742Z" style="fill:#bfbfbf;"/><path d="M378.285,59.496l-0,27.484l23.802,-13.742l-23.802,-13.742Z" style="fill:#d9d9d9;"/><path d="M402.087,155.69l23.802,13.742l-23.802,13.742l-23.802,-13.742l23.802,-13.742Z" style="fill:#8c8c8c;"/><path d="M402.087,128.206l23.802,13.742l-23.802,13.742l-23.802,-13.742l23.802,-13.742Z" style="fill:#b3b3b3;"/><path d="M378.285,114.464l-0,27.484l23.802,-13.742l-23.802,-13.742Z" style="fill:#999;"/><path d="M402.087,100.722l-23.802,13.742l23.802,13.742l23.802,-13.742l-23.802,-13.742Z" style="fill:#ccc;"/><path d="M425.889,141.948l23.802,13.742l-23.802,13.742l-23.802,-13.742l23.802,-13.742Z" style="fill:#999;"/><path d="M425.889,86.98l-23.802,13.742l23.802,13.742l23.802,-13.742l-23.802,-13.742Z" style="fill:#a6a6a6;"/><path d="M473.493,114.464l-23.802,13.742l23.802,13.742l23.801,-13.742l-23.801,-13.742Z" style="fill:#d9d9d9;"/></g><path d="M86.03,70.932l24.548,14.174l-24.548,14.173l-0,-28.347Zm1,1.732l21.548,12.442c0,-0 -21.548,12.441 -21.548,12.441l-0,-24.883Z" style="fill:#999;"/><path d="M86.03,127.625l49.097,-28.346l24.549,14.173l-49.098,28.346l49.098,28.347l-73.646,42.52l-0,-28.347l24.548,-14.173l-24.548,-14.173l-0,-28.347Zm1,0.578l48.097,-27.77c0,0 22.549,13.019 22.549,13.019c-0,-0 -47.598,27.48 -47.598,27.48l0,1.732c0,0 39.361,22.725 47.598,27.481c-0,-0 -70.646,40.788 -70.646,40.788c-0,-0 -0,-26.038 -0,-26.038c-0,0 24.048,-13.884 24.048,-13.884l0,-1.732l-24.048,-13.885l-0,-27.191Z" style="fill:#999;"/><path d="M184.225,127.625l-24.549,14.173l24.549,14.174l24.548,-14.174l-24.548,-14.173Zm-0,1.155l22.548,13.018c0,0 -22.548,13.019 -22.548,13.019c-0,-0 -22.549,-13.019 -22.549,-13.019l22.549,-13.018Z" style="fill:#999;"/></svg>