<?xml version="1.0" encoding="UTF-8" standalone="no"?><!DOCTYPE svg PUBLIC "-//W3C//DTD SVG 1.1//EN" "http://www.w3.org/Graphics/SVG/1.1/DTD/svg11.dtd"><svg width="100%" height="100%" viewBox="0 0 210 267" version="1.1" xmlns="http://www.w3.org/2000/svg" xmlns:xlink="http://www.w3.org/1999/xlink" xml:space="preserve" xmlns:serif="http://www.serif.com/" style="fill-rule:evenodd;clip-rule:evenodd;stroke-linejoin:round;stroke-miterlimit:2;"><path d="M209.71,121.03l-42.079,-24.294l-41.697,24.25l-0.068,24.245l41.926,24.206l41.918,-24.202l-0,-24.205Z" style="fill:#72552b;"/><path d="M42.002,24.204l-41.922,-24.204l0.004,72.611l41.918,-24.202l0,-24.205Z" style="fill:#72552b;"/><path d="M125.866,169.456l-62.897,-36.323l62.889,-36.309l-0,-24.206l-41.926,-24.206l-83.852,48.412l0,72.617l20.963,12.103l-20.963,12.103l0,72.618l125.786,-72.604l0,-24.205Z" style="fill:#72552b;"/><path d="M209.71,121.03l-41.922,24.208l-0.004,24.203l41.922,-24.208l0.004,-24.203Z" style="fill:#72552b;"/><path d="M0.08,242.059l0,24.206l41.926,-24.206l0,-24.206l-41.926,24.206Z" style="fill:#7f612e;"/><path d="M42.006,217.853l0,24.206l41.926,-24.206l0,-24.206l-41.926,24.206Z" style="fill:#6d5527;"/><path d="M42.006,121.03l20.967,12.105l20.959,-12.105l0,-24.206l-41.926,24.206Z" style="fill:#6f5228;"/><path d="M167.784,145.235l-0,24.206l-41.926,-24.206l-0,-24.205l41.926,24.205Z" style="fill:#3e301c;"/><path d="M0.08,145.235l41.926,24.206l-20.963,12.103l-20.963,-12.103l0,-24.206Z" style="fill:#3e301c;"/><path d="M42.086,24.16l-42.006,24.252l-0.08,24.247l42.006,-24.252l0.08,-24.247Z" style="fill:#755b28;"/><path d="M83.932,96.824l0,24.206l41.926,-24.206l-0,-24.206l-41.926,24.206Z" style="fill:#654c28;"/><path d="M83.932,193.647l0,24.206l41.926,-24.206l-0,-24.206l-41.926,24.206Z" style="fill:#6f5228;"/><path d="M0.08,193.647l0,48.412l41.926,-24.206l-41.926,-24.206Z" style="fill:#5bea00;"/><path d="M0.08,0l0,48.412l41.926,-24.206l-41.926,-24.206Z" style="fill:#68ff09;"/><path d="M42.006,169.441l41.926,24.206l-41.926,24.206l-41.926,-24.206l41.926,-24.206Z" style="fill:#55ba14;"/><path d="M42.006,121.03l41.926,24.205l-41.926,24.206l-41.926,-24.206l41.926,-24.205Z" style="fill:#5cda00;"/><path d="M0.08,96.824l0,48.411l41.926,-24.205l-41.926,-24.206Z" style="fill:#55ba14;"/><path d="M42.006,72.618l-41.926,24.206l41.926,24.206l41.926,-24.206l-41.926,-24.206Z" style="fill:#68ff09;"/><path d="M83.932,145.235l41.926,24.206l-41.926,24.206l-41.926,-24.206l41.926,-24.206Z" style="fill:#58c700;"/><path d="M83.932,48.412l-41.926,24.206l41.926,24.206l41.926,-24.206l-41.926,-24.206Z" style="fill:#65c700;"/><path d="M167.784,96.824l-41.926,24.206l41.926,24.205l41.926,-24.205l-41.926,-24.206Z" style="fill:#68ff09;"/></svg>