<?xml version="1.0" encoding="UTF-8" standalone="no"?>
<!DOCTYPE svg PUBLIC "-//W3C//DTD SVG 1.1//EN" "http://www.w3.org/Graphics/SVG/1.1/DTD/svg11.dtd">
<svg width="100%" height="100%" viewBox="0 0 519 599" version="1.1" xmlns="http://www.w3.org/2000/svg" xmlns:xlink="http://www.w3.org/1999/xlink" xml:space="preserve" xmlns:serif="http://www.serif.com/" style="fill-rule:evenodd;clip-rule:evenodd;stroke-miterlimit:1.5;">
    <g transform="matrix(1,0,0,1,-14796.4,-9187.35)">
        <g transform="matrix(1,0,0,1,-0.837133,-0.458999)">
            <g transform="matrix(1,0,0,1,0.837133,0.458999)">
                <path d="M14800.2,9191.1L14902.4,9250.16L14800.2,9309.21L14800.2,9191.1Z" style="fill:none;stroke:rgb(127,226,0);stroke-width:4.17px;"/>
            </g>
        </g>
        <g transform="matrix(1,0,0,1,-0.837133,-0.458999)">
            <g transform="matrix(1,0,0,1,0.837133,0.458999)">
                <path d="M14800.2,9427.32L15004.7,9309.21L15107,9368.27L14902.4,9486.38L15107,9604.49L14800.2,9781.65L14800.2,9663.54L14902.4,9604.49L14800.2,9545.43L14800.2,9427.32Z" style="fill:none;stroke:rgb(127,226,0);stroke-width:4.17px;"/>
            </g>
        </g>
        <g transform="matrix(1,0,0,1,-0.837133,-0.458999)">
            <g transform="matrix(1,0,0,1,0.837133,0.458999)">
                <path d="M15209.3,9427.32L15107,9486.38L15209.3,9545.43L15311.6,9486.38L15209.3,9427.32Z" style="fill:none;stroke:rgb(127,226,0);stroke-width:4.17px;"/>
            </g>
        </g>
    </g>
</svg>
