<?xml version="1.0" encoding="UTF-8" standalone="no"?><!DOCTYPE svg PUBLIC "-//W3C//DTD SVG 1.1//EN" "http://www.w3.org/Graphics/SVG/1.1/DTD/svg11.dtd"><svg width="100%" height="100%" viewBox="0 0 428 104" version="1.1" xmlns="http://www.w3.org/2000/svg" xmlns:xlink="http://www.w3.org/1999/xlink" xml:space="preserve" xmlns:serif="http://www.serif.com/" style="fill-rule:evenodd;clip-rule:evenodd;stroke-linejoin:round;stroke-miterlimit:2;"><g><g><path d="M81.361,46.956l-16.325,-9.426l-16.177,9.409l-0.027,9.406l16.266,9.391l16.263,-9.389l-0,-9.391Z" style="fill:#72552b;"/><path d="M16.296,9.39l-16.265,-9.39l0.002,28.171l16.263,-9.39l-0,-9.391Z" style="fill:#72552b;"/><path d="M48.832,65.743l-24.402,-14.092l24.399,-14.086l-0,-9.392l-16.266,-9.391l-32.532,18.783l0,28.173l8.133,4.696l-8.133,4.695l0,28.174l48.801,-28.168l0,-9.392Z" style="fill:#72552b;"/><path d="M81.361,46.956l-16.265,9.392l-0.001,9.39l16.264,-9.392l0.002,-9.39Z" style="fill:#72552b;"/><path d="M0.031,93.911l0,9.392l16.266,-9.392l0,-9.391l-16.266,9.391Z" style="fill:#7f612e;"/><path d="M16.297,84.52l0,9.391l16.266,-9.391l0,-9.391l-16.266,9.391Z" style="fill:#6d5527;"/><path d="M16.297,46.956l8.135,4.696l8.131,-4.696l0,-9.391l-16.266,9.391Z" style="fill:#6f5228;"/><path d="M65.095,56.347l-0,9.391l-16.266,-9.391l-0,-9.391l16.266,9.391Z" style="fill:#3e301c;"/><path d="M0.031,56.347l16.266,9.391l-8.133,4.696l-8.133,-4.696l0,-9.391Z" style="fill:#3e301c;"/><path d="M16.328,9.373l-16.297,9.409l-0.031,9.408l16.297,-9.41l0.031,-9.407Z" style="fill:#755b28;"/><path d="M32.563,37.565l0,9.391l16.266,-9.391l-0,-9.392l-16.266,9.392Z" style="fill:#654c28;"/><path d="M32.563,75.129l0,9.391l16.266,-9.391l-0,-9.391l-16.266,9.391Z" style="fill:#6f5228;"/><path d="M0.031,75.129l0,18.782l16.266,-9.391l-16.266,-9.391Z" style="fill:#5bea00;"/><path d="M0.031,0l0,18.782l16.266,-9.391l-16.266,-9.391Z" style="fill:#68ff09;"/><path d="M16.297,65.738l16.266,9.391l-16.266,9.391l-16.266,-9.391l16.266,-9.391Z" style="fill:#55ba14;"/><path d="M16.297,46.956l16.266,9.391l-16.266,9.391l-16.266,-9.391l16.266,-9.391Z" style="fill:#5cda00;"/><path d="M0.031,37.565l0,18.782l16.266,-9.391l-16.266,-9.391Z" style="fill:#55ba14;"/><path d="M16.297,28.173l-16.266,9.392l16.266,9.391l16.266,-9.391l-16.266,-9.392Z" style="fill:#68ff09;"/><path d="M32.563,56.347l16.266,9.391l-16.266,9.391l-16.266,-9.391l16.266,-9.391Z" style="fill:#58c700;"/><path d="M32.563,18.782l-16.266,9.391l16.266,9.392l16.266,-9.392l-16.266,-9.391Z" style="fill:#65c700;"/><path d="M65.095,37.565l-16.266,9.391l16.266,9.391l16.266,-9.391l-16.266,-9.391Z" style="fill:#68ff09;"/></g><g><path d="M109.023,20.392l-4.811,-1.272c-2.268,-0.553 -3.706,-2.819 -3.706,-4.589c0,-2.432 2.378,-5.528 5.807,-5.528c3.264,-0 5.642,1.824 5.642,4.257l6.073,-0c0,-5.085 -5.521,-9.391 -11.714,-9.391c-6.746,0 -11.66,4.692 -11.66,10.773c0,5.307 4.527,9.233 9.392,10.283c3.263,0.829 3.927,0.94 4.978,1.216c3.206,0.774 5.805,2.765 5.805,6.248c0,2.598 -2.654,6.358 -8.018,6.358c-4.479,-0 -7.797,-4.313 -7.797,-6.911l-6.405,-0c0,7.021 6.737,12.376 14.755,12.376c7.686,-0 13.483,-5.189 13.483,-12.21c0,-6.745 -4.803,-10.118 -11.824,-11.61l-0,-0Z" style="fill:#fff;fill-rule:nonzero;"/><path d="M143.898,36.308l6.521,-0c-2.266,4.587 -6.852,7.683 -12.323,7.683c-7.958,-0 -14.147,-6.467 -14.147,-14.312c0,-7.903 6.189,-14.368 14.147,-14.368c7.902,-0 13.925,6.465 13.925,14.368c0,0.719 -0.055,1.439 -0.165,2.103l-22.104,0c0.828,4.195 4.144,7.289 8.233,7.289c2.376,0 4.421,-0.995 5.913,-2.763Zm-14.036,-9.01l16.081,0c-0.884,-3.976 -3.979,-6.902 -7.958,-6.902c-3.978,-0 -7.183,2.926 -8.123,6.902Z" style="fill:#fff;fill-rule:nonzero;"/><path d="M169.267,15.255c-3.814,0 -6.302,1.215 -7.683,3.092l-0,-2.539l-5.466,-0l0,27.63l5.466,0l-0,-15.2c-0,-5.472 3.703,-7.352 7.683,-7.352c0.663,0 1.492,0.056 2.321,0.277l0,-5.742c-0.774,-0.11 -1.548,-0.166 -2.321,-0.166Z" style="fill:#fff;fill-rule:nonzero;"/><path d="M181.101,15.805l-5.692,-0l12.986,28.134l1.381,-0l13.042,-28.134l-5.692,-0l-8.068,17.135l-7.957,-17.135Z" style="fill:#fff;fill-rule:nonzero;"/><path d="M223.326,36.308l6.521,-0c-2.266,4.587 -6.853,7.683 -12.323,7.683c-7.958,-0 -14.147,-6.467 -14.147,-14.312c0,-7.903 6.189,-14.368 14.147,-14.368c7.902,-0 13.925,6.465 13.925,14.368c0,0.719 -0.055,1.439 -0.166,2.103l-22.104,0c0.829,4.195 4.145,7.289 8.234,7.289c2.376,0 4.421,-0.995 5.913,-2.763Zm-14.036,-9.01l16.081,0c-0.885,-3.976 -3.979,-6.902 -7.958,-6.902c-3.979,-0 -7.184,2.926 -8.123,6.902Z" style="fill:#fff;fill-rule:nonzero;"/><path d="M248.694,15.255c-3.813,0 -6.301,1.215 -7.683,3.092l0,-2.539l-5.465,-0l0,27.63l5.465,0l0,-15.2c0,-5.472 3.704,-7.352 7.683,-7.352c0.664,0 1.493,0.056 2.322,0.277l-0,-5.742c-0.774,-0.11 -1.548,-0.166 -2.322,-0.166Z" style="fill:#fff;fill-rule:nonzero;"/><path d="M274.014,20.392l-4.811,-1.272c-2.268,-0.553 -3.705,-2.819 -3.705,-4.589c-0,-2.432 2.378,-5.528 5.806,-5.528c3.264,-0 5.642,1.824 5.642,4.257l6.073,-0c0,-5.085 -5.521,-9.391 -11.714,-9.391c-6.746,0 -11.659,4.692 -11.659,10.773c-0,5.307 4.527,9.233 9.391,10.283c3.263,0.829 3.927,0.94 4.978,1.216c3.206,0.774 5.805,2.765 5.805,6.248c0,2.598 -2.654,6.358 -8.018,6.358c-4.479,-0 -7.797,-4.313 -7.797,-6.911l-6.405,-0c0,7.021 6.737,12.376 14.755,12.376c7.686,-0 13.483,-5.189 13.483,-12.21c0,-6.745 -4.803,-10.118 -11.824,-11.61l-0,-0Z" style="fill:#fff;fill-rule:nonzero;"/><path d="M298.938,20.886l6.412,0l-0,-5.078l-6.412,0l0,-12.049l-5.41,1.658l0,10.391l-4.919,0l-0,5.078l4.919,0l0,14.598c0,6.244 3.147,8.783 9.169,8.783l-0,-5.52c-2.267,-0 -3.759,-0.719 -3.759,-3.263l0,-14.598Z" style="fill:#fff;fill-rule:nonzero;"/><path d="M330.003,43.438l-0,-3.315c-0,-0 -2.763,3.812 -8.842,3.812c-7.902,0 -14.312,-6.41 -14.312,-14.201c0,-7.958 6.41,-14.257 14.312,-14.257c6.079,-0 8.842,3.813 8.842,3.813l-0,-3.482l5.36,0l0,27.63l-5.36,0Zm-8.731,-4.31c4.807,-0 8.62,-4.2 8.62,-9.284c0,-5.139 -3.813,-9.394 -8.62,-9.394c-4.808,-0 -8.621,4.255 -8.621,9.394c0,5.084 3.813,9.284 8.621,9.284Z" style="fill:#fff;fill-rule:nonzero;"/><path d="M354.433,15.255c-3.814,0 -6.302,1.215 -7.683,3.092l-0,-2.539l-5.466,-0l0,27.63l5.466,0l-0,-15.2c-0,-5.472 3.703,-7.352 7.683,-7.352c0.663,0 1.492,0.056 2.321,0.277l0,-5.742c-0.774,-0.11 -1.548,-0.166 -2.321,-0.166Z" style="fill:#fff;fill-rule:nonzero;"/><path d="M371.457,20.886l6.411,0l0,-5.078l-6.411,0l-0,-12.049l-5.41,1.658l-0,10.391l-4.919,0l-0,5.078l4.919,0l-0,14.598c-0,6.244 3.146,8.783 9.168,8.783l0,-5.52c-2.266,-0 -3.758,-0.719 -3.758,-3.263l-0,-14.598Z" style="fill:#fff;fill-rule:nonzero;"/><path d="M399.814,36.308l6.521,-0c-2.266,4.587 -6.853,7.683 -12.323,7.683c-7.958,-0 -14.147,-6.467 -14.147,-14.312c0,-7.903 6.189,-14.368 14.147,-14.368c7.902,-0 13.925,6.465 13.925,14.368c0,0.719 -0.055,1.439 -0.166,2.103l-22.103,0c0.828,4.195 4.144,7.289 8.233,7.289c2.376,0 4.421,-0.995 5.913,-2.763Zm-14.036,-9.01l16.081,0c-0.884,-3.976 -3.979,-6.902 -7.958,-6.902c-3.978,-0 -7.184,2.926 -8.123,6.902Z" style="fill:#fff;fill-rule:nonzero;"/><path d="M425.183,15.255c-3.814,0 -6.302,1.215 -7.683,3.092l-0,-2.539l-5.466,-0l0,27.63l5.466,0l-0,-15.2c-0,-5.472 3.703,-7.352 7.683,-7.352c0.663,0 1.492,0.056 2.321,0.277l0,-5.742c-0.774,-0.11 -1.548,-0.166 -2.321,-0.166Z" style="fill:#fff;fill-rule:nonzero;"/><path d="M129.946,78.673l-0,-4.493c-0,-2.086 1.483,-3.61 3.287,-3.61c0.562,-0 1.083,0.12 1.524,0.441l1.683,-3.444c-1.042,-0.44 -2.124,-0.681 -3.207,-0.681c-4.008,0 -7.251,3.283 -7.251,7.334l0,4.453l-3.568,-0l0,3.683l3.568,-0l0,16.356l3.964,0l-0,-16.356l4.65,-0l0,-3.683l-4.65,-0Z" style="fill:#fff;fill-rule:nonzero;"/><path d="M146.064,98.953c-5.691,-0 -10.3,-4.609 -10.3,-10.301c-0,-5.691 4.609,-10.26 10.3,-10.26c5.692,0 10.261,4.569 10.261,10.26c-0,5.692 -4.569,10.301 -10.261,10.301Zm-0.08,-3.487c3.407,-0 6.172,-3.006 6.172,-6.733c0,-3.688 -2.765,-6.734 -6.172,-6.734c-3.447,0 -6.172,3.046 -6.172,6.734c-0,3.727 2.725,6.733 6.172,6.733Z" style="fill:#fff;fill-rule:nonzero;"/><path d="M168.752,78.272c-2.766,-0 -4.57,0.881 -5.572,2.242l0,-1.842l-3.964,0l0,20.04l3.964,0l0,-11.024c0,-3.969 2.686,-5.332 5.572,-5.332c0.481,-0 1.083,0.04 1.684,0.2l0,-4.164c-0.561,-0.08 -1.122,-0.12 -1.684,-0.12Z" style="fill:#fff;fill-rule:nonzero;"/><path d="M229.331,98.715l-4.808,-39.576l-1.768,0l-13.484,29.903l-13.374,-29.903l-1.769,0l-4.808,39.576l5.25,-0l3.261,-21.778l10.611,22.607l1.768,-0l10.611,-22.496l3.26,21.667l5.25,-0Z" style="fill:#fff;fill-rule:nonzero;"/><path d="M238.676,63.62c-2.099,-0 -3.755,-1.603 -3.755,-3.593c-0,-1.935 1.656,-3.538 3.755,-3.538c2.043,0 3.755,1.603 3.755,3.538c0,1.99 -1.712,3.593 -3.755,3.593Zm2.816,7.51l0,27.581l-5.467,0l0,-27.581l5.467,-0Z" style="fill:#fff;fill-rule:nonzero;"/><path d="M261.283,70.529c-3.816,-0 -6.304,1.214 -7.687,3.091l0,-2.539l-5.465,-0l0,27.63l5.465,0l0,-15.2c0,-5.472 3.705,-7.351 7.687,-7.351c2.212,-0 6.028,1.658 6.028,6.799l-0,15.752l5.465,0l0,-15.752c0,-9.78 -6.405,-12.43 -11.493,-12.43Z" style="fill:#fff;fill-rule:nonzero;"/><path d="M296.712,91.581l6.52,0c-2.265,4.588 -6.852,7.683 -12.323,7.683c-7.957,0 -14.146,-6.467 -14.146,-14.312c-0,-7.902 6.189,-14.368 14.146,-14.368c7.902,0 13.926,6.466 13.926,14.368c-0,0.72 -0.055,1.439 -0.166,2.104l-22.104,-0c0.829,4.194 4.145,7.289 8.234,7.289c2.376,-0 4.421,-0.995 5.913,-2.764Zm-14.036,-9.009l16.08,-0c-0.884,-3.976 -3.979,-6.903 -7.957,-6.903c-3.979,0 -7.184,2.927 -8.123,6.903Z" style="fill:#fff;fill-rule:nonzero;"/><path d="M328.381,79.257l6.191,-0c-1.99,-5.085 -6.633,-8.673 -12.492,-8.673c-7.849,0 -14.309,6.35 -14.309,14.257c0,7.852 6.46,14.257 14.309,14.257c5.97,0 10.613,-3.643 12.547,-8.838l-6.025,0c-1.382,2.378 -3.703,3.981 -6.577,3.981c-4.809,0 -8.623,-4.147 -8.623,-9.344c0,-5.087 3.814,-9.29 8.623,-9.29c2.708,0 4.974,1.383 6.356,3.65Z" style="fill:#fff;fill-rule:nonzero;"/><path d="M352.48,70.529c-3.813,-0 -6.301,1.215 -7.683,3.092l0,-2.54l-5.465,0l0,27.63l5.465,0l0,-15.2c0,-5.472 3.704,-7.351 7.683,-7.351c0.664,-0 1.493,0.055 2.322,0.276l-0,-5.741c-0.774,-0.111 -1.548,-0.166 -2.322,-0.166Z" style="fill:#fff;fill-rule:nonzero;"/><path d="M380.505,98.712l0,-3.316c0,-0 -2.763,3.813 -8.841,3.813c-7.902,-0 -14.313,-6.41 -14.313,-14.202c0,-7.957 6.411,-14.257 14.313,-14.257c6.078,-0 8.841,3.813 8.841,3.813l0,-3.481l5.361,-0l-0,27.63l-5.361,-0Zm-8.731,-4.311c4.808,0 8.621,-4.199 8.621,-9.283c-0,-5.14 -3.813,-9.395 -8.621,-9.395c-4.807,0 -8.62,4.255 -8.62,9.395c-0,5.084 3.813,9.283 8.62,9.283Z" style="fill:#fff;fill-rule:nonzero;"/><path d="M419.969,76.16l6.412,-0l-0,-5.078l-6.412,-0l0,-12.056l-5.41,1.658l0,10.398l-13.383,-0l0,-6.195c0,-2.876 2.046,-4.978 4.535,-4.978c0.774,0 1.493,0.166 2.102,0.609l2.322,-4.748c-1.438,-0.608 -2.931,-0.939 -4.424,-0.939c-5.528,0 -10,4.527 -10,10.111l0,6.14l-4.919,-0l-0,5.078l4.919,-0l0,22.552l5.465,-0l0,-22.552l13.383,-0l0,13.603c0,6.244 3.147,9.391 9.169,9.391l-0,-5.521c-2.322,0 -3.759,-1.327 -3.759,-3.87l0,-13.603Z" style="fill:#fff;fill-rule:nonzero;"/></g></g></svg>