<?xml version="1.0" encoding="UTF-8" standalone="no"?>
<!DOCTYPE svg PUBLIC "-//W3C//DTD SVG 1.1//EN" "http://www.w3.org/Graphics/SVG/1.1/DTD/svg11.dtd">
<svg width="100%" height="100%" viewBox="0 0 1110 1480" version="1.1" xmlns="http://www.w3.org/2000/svg" xmlns:xlink="http://www.w3.org/1999/xlink" xml:space="preserve" xmlns:serif="http://www.serif.com/" style="fill-rule:evenodd;clip-rule:evenodd;stroke-linejoin:round;stroke-miterlimit:2;">
    <g transform="matrix(1,0,0,1,-16607.6,-20860.7)">
        <g transform="matrix(6.83145,0,0,6.83145,-7621.57,-21471.2)">
            <g transform="matrix(1,-1.11022e-16,1.11022e-16,1,554.887,483.049)">
                <path d="M3119.74,5787.4L3094.07,5772.58L3068.64,5787.38L3068.6,5802.16L3094.17,5816.93L3119.74,5802.16L3119.74,5787.4Z" style="fill:rgb(114,85,43);"/>
            </g>
            <g transform="matrix(1,-1.11022e-16,1.11022e-16,1,452.598,423.993)">
                <path d="M3119.74,5787.4L3094.17,5772.64L3094.17,5816.93L3119.74,5802.16L3119.74,5787.4Z" style="fill:rgb(114,85,43);"/>
            </g>
            <g transform="matrix(1,-1.11022e-16,1.11022e-16,1,503.749,512.586)">
                <path d="M3119.74,5787.4L3081.38,5765.25L3119.73,5743.1L3119.73,5728.34L3094.16,5713.57L3043.02,5743.1L3043.02,5787.39L3055.8,5794.78L3043.02,5802.16L3043.02,5846.45L3119.74,5802.16L3119.74,5787.4Z" style="fill:rgb(114,85,43);"/>
            </g>
            <g transform="matrix(1,-1.11022e-16,1.11022e-16,1,561.28,471.977)">
                <path d="M3113.34,5798.47L3087.78,5813.24L3087.77,5828L3113.34,5813.24L3113.34,5798.47Z" style="fill:rgb(114,85,43);"/>
            </g>
            <g transform="matrix(1,-1.11022e-16,1.11022e-16,1,467.206,550.537)">
                <path d="M3079.56,5793.73L3079.56,5808.5L3105.13,5793.73L3105.13,5778.97L3079.56,5793.73Z" style="fill:rgb(127,97,46);"/>
            </g>
            <g transform="matrix(0.5,-0.866025,0.866025,0.5,-2999.57,6108.05)">
                <path d="M3094.17,5802.16L3081.38,5809.55L3106.95,5824.31L3119.74,5816.93L3094.17,5802.16Z" style="fill:rgb(109,85,39);"/>
            </g>
            <g transform="matrix(0.5,-0.866025,0.866025,0.5,-2999.57,6048.99)">
                <path d="M3094.17,5802.16L3094.17,5816.93L3106.95,5824.31L3119.74,5816.93L3094.17,5802.16Z" style="fill:rgb(111,82,40);"/>
            </g>
            <g transform="matrix(-0.5,-0.866025,-0.866025,0.5,10221,6063.76)">
                <path d="M3094.17,5802.16L3081.38,5809.55L3106.95,5824.31L3119.74,5816.93L3094.17,5802.16Z" style="fill:rgb(62,48,28);"/>
            </g>
            <g transform="matrix(-1,-3.33067e-16,-3.33067e-16,1,6663.31,481.204)">
                <path d="M3116.54,5804.01L3090.97,5818.78L3103.76,5826.16L3116.54,5818.78L3116.54,5804.01Z" style="fill:rgb(62,48,28);"/>
            </g>
            <g transform="matrix(1,-1.11022e-16,1.11022e-16,1,465.386,416.612)">
                <path d="M3107,5794.76L3081.38,5809.55L3081.33,5824.34L3106.95,5809.54L3107,5794.76Z" style="fill:rgb(117,91,40);"/>
            </g>
            <g transform="matrix(0.5,-0.866025,0.866025,0.5,-2974,6034.23)">
                <path d="M3094.17,5802.16L3081.38,5809.55L3106.95,5824.31L3119.74,5816.93L3094.17,5802.16Z" style="fill:rgb(101,76,40);"/>
            </g>
            <g transform="matrix(0.5,-0.866025,0.866025,0.5,-2974,6093.29)">
                <path d="M3094.17,5802.16L3081.38,5809.55L3106.95,5824.31L3119.74,5816.93L3094.17,5802.16Z" style="fill:rgb(111,82,40);"/>
            </g>
            <g transform="matrix(2,0,0,2,-2667.14,-5304.35)">
                <path d="M3106.95,5809.55L3106.95,5824.31L3119.74,5816.93L3106.95,5809.55Z" style="fill:rgb(91,234,0);"/>
            </g>
            <g transform="matrix(2,0,0,2,-2667.14,-5422.46)">
                <path d="M3106.95,5809.55L3106.95,5824.31L3119.74,5816.93L3106.95,5809.55Z" style="fill:rgb(104,255,9);"/>
            </g>
            <g transform="matrix(-2,-2.44929e-16,-2.44929e-16,2,9786.24,-5319.12)">
                <path d="M3106.95,5809.55L3094.17,5816.93L3106.95,5824.31L3119.74,5816.93L3106.95,5809.55Z" style="fill:rgb(85,186,20);"/>
            </g>
            <g transform="matrix(-2,-2.44929e-16,-2.44929e-16,2,9786.24,-5348.64)">
                <path d="M3106.95,5809.55L3094.17,5816.93L3106.95,5824.31L3119.74,5816.93L3106.95,5809.55Z" style="fill:rgb(92,218,0);"/>
            </g>
            <g transform="matrix(2,0,0,2,-2667.14,-5363.41)">
                <path d="M3106.95,5809.55L3106.95,5824.31L3119.74,5816.93L3106.95,5809.55Z" style="fill:rgb(85,186,20);"/>
            </g>
            <g transform="matrix(2,0,0,2,-2641.57,-5378.17)">
                <path d="M3106.95,5809.55L3094.17,5816.93L3106.95,5824.31L3119.74,5816.93L3106.95,5809.55Z" style="fill:rgb(104,255,9);"/>
            </g>
            <g transform="matrix(-2,2.44929e-16,2.44929e-16,2,9811.81,-5333.88)">
                <path d="M3106.95,5809.55L3094.17,5816.93L3106.95,5824.31L3119.74,5816.93L3106.95,5809.55Z" style="fill:rgb(88,199,0);"/>
            </g>
            <g transform="matrix(2,0,0,2,-2615.99,-5392.93)">
                <path d="M3106.95,5809.55L3094.17,5816.93L3106.95,5824.31L3119.74,5816.93L3106.95,5809.55Z" style="fill:rgb(101,199,0);"/>
            </g>
            <g transform="matrix(2,0,0,2,-2564.85,-5363.41)">
                <path d="M3106.95,5809.55L3094.17,5816.93L3106.95,5824.31L3119.74,5816.93L3106.95,5809.55Z" style="fill:rgb(104,255,9);"/>
            </g>
        </g>
        <g transform="matrix(1.70596,0,0,1.70596,11082.6,11291.3)">
            <path d="M3272.89,6322.06L3263.9,6319.68C3259.66,6318.65 3256.97,6314.41 3256.97,6311.1C3256.97,6306.55 3261.41,6300.76 3267.83,6300.76C3273.93,6300.76 3278.37,6304.17 3278.37,6308.72L3289.73,6308.72C3289.73,6299.22 3279.41,6291.16 3267.83,6291.16C3255.21,6291.16 3246.03,6299.94 3246.03,6311.31C3246.03,6321.23 3254.49,6328.57 3263.59,6330.53C3269.69,6332.08 3270.93,6332.29 3272.89,6332.81C3278.89,6334.25 3283.75,6337.98 3283.75,6344.49C3283.75,6349.35 3278.78,6356.38 3268.76,6356.38C3260.38,6356.38 3254.18,6348.31 3254.18,6343.45L3242.2,6343.45C3242.2,6356.58 3254.8,6366.59 3269.79,6366.59C3284.16,6366.59 3295,6356.89 3295,6343.76C3295,6331.15 3286.02,6324.85 3272.89,6322.06L3272.89,6322.06Z" style="fill:white;fill-rule:nonzero;"/>
            <path d="M3338.1,6351.82L3350.29,6351.82C3346.05,6360.39 3337.48,6366.18 3327.25,6366.18C3312.37,6366.18 3300.8,6354.09 3300.8,6339.42C3300.8,6324.65 3312.37,6312.56 3327.25,6312.56C3342.02,6312.56 3353.28,6324.65 3353.28,6339.42C3353.28,6340.77 3353.18,6342.11 3352.97,6343.35L3311.65,6343.35C3313.2,6351.2 3319.4,6356.98 3327.04,6356.98C3331.49,6356.98 3335.31,6355.12 3338.1,6351.82ZM3311.86,6334.97L3341.92,6334.97C3340.27,6327.54 3334.48,6322.07 3327.04,6322.07C3319.6,6322.07 3313.61,6327.54 3311.86,6334.97Z" style="fill:white;fill-rule:nonzero;"/>
            <path d="M3387.6,6312.45C3380.47,6312.45 3375.81,6314.73 3373.23,6318.23L3373.23,6313.49L3363.01,6313.49L3363.01,6365.15L3373.23,6365.15L3373.23,6336.73C3373.23,6326.5 3380.16,6322.98 3387.6,6322.98C3388.84,6322.98 3390.39,6323.09 3391.94,6323.5L3391.94,6312.76C3390.49,6312.56 3389.04,6312.45 3387.6,6312.45Z" style="fill:white;fill-rule:nonzero;"/>
            <path d="M3409.72,6313.48L3399.08,6313.48L3423.36,6366.08L3425.94,6366.08L3450.33,6313.48L3439.68,6313.48L3424.6,6345.52L3409.72,6313.48Z" style="fill:white;fill-rule:nonzero;"/>
            <path d="M3492.8,6351.82L3504.99,6351.82C3500.76,6360.39 3492.18,6366.18 3481.95,6366.18C3467.08,6366.18 3455.51,6354.09 3455.51,6339.42C3455.51,6324.65 3467.08,6312.56 3481.95,6312.56C3496.73,6312.56 3507.99,6324.65 3507.99,6339.42C3507.99,6340.77 3507.89,6342.11 3507.68,6343.35L3466.35,6343.35C3467.9,6351.2 3474.1,6356.98 3481.75,6356.98C3486.19,6356.98 3490.01,6355.12 3492.8,6351.82ZM3466.56,6334.97L3496.63,6334.97C3494.97,6327.54 3489.19,6322.07 3481.75,6322.07C3474.31,6322.07 3468.32,6327.54 3466.56,6334.97Z" style="fill:white;fill-rule:nonzero;"/>
            <path d="M3542.3,6312.45C3535.17,6312.45 3530.52,6314.73 3527.94,6318.23L3527.94,6313.49L3517.72,6313.49L3517.72,6365.15L3527.94,6365.15L3527.94,6336.73C3527.94,6326.5 3534.86,6322.98 3542.3,6322.98C3543.54,6322.98 3545.09,6323.09 3546.64,6323.5L3546.64,6312.76C3545.19,6312.56 3543.75,6312.45 3542.3,6312.45Z" style="fill:white;fill-rule:nonzero;"/>
            <path d="M3589.64,6322.06L3580.64,6319.68C3576.41,6318.65 3573.72,6314.41 3573.72,6311.1C3573.72,6306.55 3578.16,6300.76 3584.57,6300.76C3590.68,6300.76 3595.12,6304.17 3595.12,6308.72L3606.48,6308.72C3606.48,6299.22 3596.16,6291.16 3584.58,6291.16C3571.96,6291.16 3562.78,6299.94 3562.78,6311.31C3562.78,6321.23 3571.24,6328.57 3580.34,6330.53C3586.44,6332.08 3587.68,6332.29 3589.64,6332.81C3595.64,6334.25 3600.5,6337.98 3600.5,6344.49C3600.5,6349.35 3595.53,6356.38 3585.5,6356.38C3577.13,6356.38 3570.93,6348.31 3570.93,6343.45L3558.95,6343.45C3558.95,6356.58 3571.55,6366.59 3586.54,6366.59C3600.91,6366.59 3611.75,6356.89 3611.75,6343.76C3611.75,6331.15 3602.77,6324.85 3589.64,6322.06L3589.64,6322.06Z" style="fill:white;fill-rule:nonzero;"/>
            <path d="M3637.27,6322.98L3649.26,6322.98L3649.26,6313.49L3637.27,6313.49L3637.27,6290.96L3627.16,6294.06L3627.16,6313.49L3617.96,6313.49L3617.96,6322.98L3627.16,6322.98L3627.16,6350.28C3627.16,6361.95 3633.04,6366.7 3644.3,6366.7L3644.3,6356.38C3640.06,6356.38 3637.27,6355.03 3637.27,6350.28L3637.27,6322.98Z" style="fill:white;fill-rule:nonzero;"/>
            <path d="M3698.45,6365.15L3698.45,6358.95C3698.45,6358.95 3693.29,6366.08 3681.92,6366.08C3667.15,6366.08 3655.16,6354.09 3655.16,6339.52C3655.16,6324.65 3667.15,6312.87 3681.92,6312.87C3693.29,6312.87 3698.45,6320 3698.45,6320L3698.45,6313.49L3708.48,6313.49L3708.48,6365.15L3698.45,6365.15ZM3682.13,6357.09C3691.12,6357.09 3698.25,6349.24 3698.25,6339.73C3698.25,6330.12 3691.12,6322.17 3682.13,6322.17C3673.14,6322.17 3666.01,6330.12 3666.01,6339.73C3666.01,6349.24 3673.14,6357.09 3682.13,6357.09Z" style="fill:white;fill-rule:nonzero;"/>
            <path d="M3744.13,6312.45C3737,6312.45 3732.35,6314.73 3729.77,6318.23L3729.77,6313.49L3719.55,6313.49L3719.55,6365.15L3729.77,6365.15L3729.77,6336.73C3729.77,6326.5 3736.69,6322.98 3744.13,6322.98C3745.37,6322.98 3746.92,6323.09 3748.47,6323.5L3748.47,6312.76C3747.03,6312.56 3745.58,6312.45 3744.13,6312.45Z" style="fill:white;fill-rule:nonzero;"/>
            <path d="M3779.06,6322.98L3791.05,6322.98L3791.05,6313.49L3779.06,6313.49L3779.06,6290.96L3768.95,6294.06L3768.95,6313.49L3759.75,6313.49L3759.75,6322.98L3768.95,6322.98L3768.95,6350.28C3768.95,6361.95 3774.83,6366.7 3786.09,6366.7L3786.09,6356.38C3781.85,6356.38 3779.06,6355.03 3779.06,6350.28L3779.06,6322.98Z" style="fill:white;fill-rule:nonzero;"/>
            <path d="M3835.18,6351.82L3847.37,6351.82C3843.14,6360.39 3834.56,6366.18 3824.33,6366.18C3809.45,6366.18 3797.88,6354.09 3797.88,6339.42C3797.88,6324.65 3809.45,6312.56 3824.33,6312.56C3839.11,6312.56 3850.37,6324.65 3850.37,6339.42C3850.37,6340.77 3850.26,6342.11 3850.06,6343.35L3808.73,6343.35C3810.28,6351.2 3816.48,6356.98 3824.12,6356.98C3828.57,6356.98 3832.39,6355.12 3835.18,6351.82ZM3808.94,6334.97L3839,6334.97C3837.35,6327.54 3831.56,6322.07 3824.12,6322.07C3816.69,6322.07 3810.69,6327.54 3808.94,6334.97Z" style="fill:white;fill-rule:nonzero;"/>
            <path d="M3884.68,6312.45C3877.55,6312.45 3872.9,6314.73 3870.31,6318.23L3870.31,6313.49L3860.1,6313.49L3860.1,6365.15L3870.31,6365.15L3870.31,6336.73C3870.31,6326.5 3877.24,6322.98 3884.68,6322.98C3885.92,6322.98 3887.47,6323.09 3889.02,6323.5L3889.02,6312.76C3887.57,6312.56 3886.12,6312.45 3884.68,6312.45Z" style="fill:white;fill-rule:nonzero;"/>
            <path d="M3256.16,6432.36L3256.16,6422.78C3256.16,6418.33 3259.32,6415.08 3263.17,6415.08C3264.37,6415.08 3265.48,6415.34 3266.42,6416.02L3270.01,6408.68C3267.78,6407.74 3265.48,6407.23 3263.17,6407.23C3254.62,6407.23 3247.71,6414.23 3247.71,6422.87L3247.71,6432.36L3240.1,6432.36L3240.1,6440.22L3247.71,6440.22L3247.71,6475.09L3256.16,6475.09L3256.16,6440.22L3266.07,6440.22L3266.07,6432.36L3256.16,6432.36Z" style="fill:white;fill-rule:nonzero;"/>
            <path d="M3293.95,6475.61C3281.81,6475.61 3271.98,6465.78 3271.98,6453.64C3271.98,6441.51 3281.81,6431.76 3293.95,6431.76C3306.08,6431.76 3315.83,6441.51 3315.83,6453.64C3315.83,6465.78 3306.08,6475.61 3293.95,6475.61ZM3293.78,6468.17C3301.04,6468.17 3306.94,6461.76 3306.94,6453.81C3306.94,6445.95 3301.04,6439.45 3293.78,6439.45C3286.43,6439.45 3280.62,6445.95 3280.62,6453.81C3280.62,6461.76 3286.43,6468.17 3293.78,6468.17Z" style="fill:white;fill-rule:nonzero;"/>
            <path d="M3344.04,6431.51C3338.14,6431.51 3334.29,6433.39 3332.15,6436.29L3332.15,6432.36L3323.7,6432.36L3323.7,6475.09L3332.15,6475.09L3332.15,6451.59C3332.15,6443.12 3337.88,6440.22 3344.04,6440.22C3345.06,6440.22 3346.35,6440.3 3347.63,6440.64L3347.63,6431.76C3346.43,6431.59 3345.23,6431.51 3344.04,6431.51Z" style="fill:white;fill-rule:nonzero;"/>
            <path d="M3453.59,6475.1L3444.61,6401.13L3441.3,6401.13L3416.1,6457.02L3391.1,6401.13L3387.79,6401.13L3378.81,6475.1L3388.62,6475.1L3394.71,6434.39L3414.55,6476.65L3417.85,6476.65L3437.68,6434.6L3443.78,6475.1L3453.59,6475.1Z" style="fill:white;fill-rule:nonzero;"/>
            <path d="M3468.99,6409.5C3465.07,6409.5 3461.97,6406.51 3461.97,6402.78C3461.97,6399.17 3465.07,6396.17 3468.99,6396.17C3472.81,6396.17 3476.01,6399.17 3476.01,6402.78C3476.01,6406.51 3472.81,6409.5 3468.99,6409.5ZM3474.26,6423.54L3474.26,6475.09L3464.04,6475.09L3464.04,6423.54L3474.26,6423.54Z" style="fill:white;fill-rule:nonzero;"/>
            <path d="M3513.32,6422.41C3506.18,6422.41 3501.53,6424.69 3498.95,6428.19L3498.95,6423.45L3488.73,6423.45L3488.73,6475.09L3498.95,6475.09L3498.95,6446.68C3498.95,6436.45 3505.87,6432.94 3513.32,6432.94C3517.45,6432.94 3524.58,6436.04 3524.58,6445.65L3524.58,6475.09L3534.8,6475.09L3534.8,6445.65C3534.8,6427.37 3522.83,6422.41 3513.32,6422.41Z" style="fill:white;fill-rule:nonzero;"/>
            <path d="M3579.54,6461.77L3591.72,6461.77C3587.49,6470.34 3578.92,6476.13 3568.69,6476.13C3553.82,6476.13 3542.25,6464.04 3542.25,6449.37C3542.25,6434.6 3553.82,6422.52 3568.69,6422.52C3583.46,6422.52 3594.72,6434.6 3594.72,6449.37C3594.72,6450.72 3594.62,6452.06 3594.41,6453.31L3553.1,6453.31C3554.64,6461.15 3560.84,6466.93 3568.49,6466.93C3572.93,6466.93 3576.75,6465.07 3579.54,6461.77ZM3553.3,6444.93L3583.36,6444.93C3581.71,6437.49 3575.92,6432.02 3568.49,6432.02C3561.05,6432.02 3555.06,6437.49 3553.3,6444.93Z" style="fill:white;fill-rule:nonzero;"/>
            <path d="M3640.8,6438.73L3652.37,6438.73C3648.65,6429.23 3639.97,6422.52 3629.02,6422.52C3614.35,6422.52 3602.28,6434.39 3602.28,6449.17C3602.28,6463.84 3614.35,6475.82 3629.02,6475.82C3640.18,6475.82 3648.86,6469.01 3652.47,6459.3L3641.21,6459.3C3638.63,6463.74 3634.29,6466.74 3628.92,6466.74C3619.93,6466.74 3612.8,6458.99 3612.8,6449.27C3612.8,6439.76 3619.93,6431.91 3628.92,6431.91C3633.98,6431.91 3638.22,6434.49 3640.8,6438.73Z" style="fill:white;fill-rule:nonzero;"/>
            <path d="M3685.84,6422.41C3678.72,6422.41 3674.07,6424.69 3671.48,6428.19L3671.48,6423.45L3661.27,6423.45L3661.27,6475.09L3671.48,6475.09L3671.48,6446.68C3671.48,6436.45 3678.41,6432.94 3685.84,6432.94C3687.08,6432.94 3688.63,6433.04 3690.18,6433.46L3690.18,6422.73C3688.74,6422.52 3687.29,6422.41 3685.84,6422.41Z" style="fill:white;fill-rule:nonzero;"/>
            <path d="M3743.39,6475.09L3743.39,6468.9C3743.39,6468.9 3738.23,6476.02 3726.87,6476.02C3712.1,6476.02 3700.11,6464.04 3700.11,6449.48C3700.11,6434.6 3712.1,6422.83 3726.87,6422.83C3738.23,6422.83 3743.39,6429.95 3743.39,6429.95L3743.39,6423.45L3753.41,6423.45L3753.41,6475.09L3743.39,6475.09ZM3727.07,6467.04C3736.06,6467.04 3743.18,6459.19 3743.18,6449.68C3743.18,6440.08 3736.06,6432.12 3727.07,6432.12C3718.09,6432.12 3710.96,6440.08 3710.96,6449.68C3710.96,6459.19 3718.09,6467.04 3727.07,6467.04Z" style="fill:white;fill-rule:nonzero;"/>
            <path d="M3817.16,6432.94L3829.14,6432.94L3829.14,6423.45L3817.16,6423.45L3817.16,6400.91L3807.04,6404.01L3807.04,6423.45L3782.03,6423.45L3782.03,6411.87C3782.03,6406.49 3785.85,6402.57 3790.51,6402.57C3791.95,6402.57 3793.3,6402.88 3794.43,6403.7L3798.78,6394.83C3796.09,6393.69 3793.3,6393.07 3790.51,6393.07C3780.17,6393.07 3771.81,6401.53 3771.81,6411.97L3771.81,6423.45L3762.62,6423.45L3762.62,6432.94L3771.81,6432.94L3771.81,6475.09L3782.03,6475.09L3782.03,6432.94L3807.04,6432.94L3807.04,6458.37C3807.04,6470.04 3812.93,6475.92 3824.18,6475.92L3824.18,6465.6C3819.84,6465.6 3817.16,6463.12 3817.16,6458.37L3817.16,6432.94Z" style="fill:white;fill-rule:nonzero;"/>
        </g>
    </g>
</svg>
