<?xml version="1.0" encoding="UTF-8" standalone="no"?>
<!DOCTYPE svg PUBLIC "-//W3C//DTD SVG 1.1//EN" "http://www.w3.org/Graphics/SVG/1.1/DTD/svg11.dtd">
<svg width="100%" height="100%" viewBox="0 0 3782 300" version="1.1" xmlns="http://www.w3.org/2000/svg" xmlns:xlink="http://www.w3.org/1999/xlink" xml:space="preserve" xmlns:serif="http://www.serif.com/" style="fill-rule:evenodd;clip-rule:evenodd;stroke-linejoin:round;stroke-miterlimit:2;">
    <g transform="matrix(1,0,0,1,-9797.49,-19321.9)">
        <g transform="matrix(1.84372,0,0,1.84372,3258.35,7897.04)">
            <g transform="matrix(1,-1.11022e-16,1.11022e-16,1,554.887,483.049)">
                <path d="M3119.74,5787.4L3094.07,5772.58L3068.64,5787.38L3068.6,5802.16L3094.17,5816.93L3119.74,5802.16L3119.74,5787.4Z" style="fill:rgb(114,85,43);"/>
            </g>
            <g transform="matrix(1,-1.11022e-16,1.11022e-16,1,452.598,423.993)">
                <path d="M3119.74,5787.4L3094.17,5772.64L3094.17,5816.93L3119.74,5802.16L3119.74,5787.4Z" style="fill:rgb(114,85,43);"/>
            </g>
            <g transform="matrix(1,-1.11022e-16,1.11022e-16,1,503.749,512.586)">
                <path d="M3119.74,5787.4L3081.38,5765.25L3119.73,5743.1L3119.73,5728.34L3094.16,5713.57L3043.02,5743.1L3043.02,5787.39L3055.8,5794.78L3043.02,5802.16L3043.02,5846.45L3119.74,5802.16L3119.74,5787.4Z" style="fill:rgb(114,85,43);"/>
            </g>
            <g transform="matrix(1,-1.11022e-16,1.11022e-16,1,561.28,471.977)">
                <path d="M3113.34,5798.47L3087.78,5813.24L3087.77,5828L3113.34,5813.24L3113.34,5798.47Z" style="fill:rgb(114,85,43);"/>
            </g>
            <g transform="matrix(1,-1.11022e-16,1.11022e-16,1,467.206,550.537)">
                <path d="M3079.56,5793.73L3079.56,5808.5L3105.13,5793.73L3105.13,5778.97L3079.56,5793.73Z" style="fill:rgb(127,97,46);"/>
            </g>
            <g transform="matrix(0.5,-0.866025,0.866025,0.5,-2999.57,6108.05)">
                <path d="M3094.17,5802.16L3081.38,5809.55L3106.95,5824.31L3119.74,5816.93L3094.17,5802.16Z" style="fill:rgb(109,85,39);"/>
            </g>
            <g transform="matrix(0.5,-0.866025,0.866025,0.5,-2999.57,6048.99)">
                <path d="M3094.17,5802.16L3094.17,5816.93L3106.95,5824.31L3119.74,5816.93L3094.17,5802.16Z" style="fill:rgb(111,82,40);"/>
            </g>
            <g transform="matrix(-0.5,-0.866025,-0.866025,0.5,10221,6063.76)">
                <path d="M3094.17,5802.16L3081.38,5809.55L3106.95,5824.31L3119.74,5816.93L3094.17,5802.16Z" style="fill:rgb(62,48,28);"/>
            </g>
            <g transform="matrix(-1,-3.33067e-16,-3.33067e-16,1,6663.31,481.204)">
                <path d="M3116.54,5804.01L3090.97,5818.78L3103.76,5826.16L3116.54,5818.78L3116.54,5804.01Z" style="fill:rgb(62,48,28);"/>
            </g>
            <g transform="matrix(1,-1.11022e-16,1.11022e-16,1,465.386,416.612)">
                <path d="M3107,5794.76L3081.38,5809.55L3081.33,5824.34L3106.95,5809.54L3107,5794.76Z" style="fill:rgb(117,91,40);"/>
            </g>
            <g transform="matrix(0.5,-0.866025,0.866025,0.5,-2974,6034.23)">
                <path d="M3094.17,5802.16L3081.38,5809.55L3106.95,5824.31L3119.74,5816.93L3094.17,5802.16Z" style="fill:rgb(101,76,40);"/>
            </g>
            <g transform="matrix(0.5,-0.866025,0.866025,0.5,-2974,6093.29)">
                <path d="M3094.17,5802.16L3081.38,5809.55L3106.95,5824.31L3119.74,5816.93L3094.17,5802.16Z" style="fill:rgb(111,82,40);"/>
            </g>
            <g transform="matrix(2,0,0,2,-2667.14,-5304.35)">
                <path d="M3106.95,5809.55L3106.95,5824.31L3119.74,5816.93L3106.95,5809.55Z" style="fill:rgb(91,234,0);"/>
            </g>
            <g transform="matrix(2,0,0,2,-2667.14,-5422.46)">
                <path d="M3106.95,5809.55L3106.95,5824.31L3119.74,5816.93L3106.95,5809.55Z" style="fill:rgb(104,255,9);"/>
            </g>
            <g transform="matrix(-2,-2.44929e-16,-2.44929e-16,2,9786.24,-5319.12)">
                <path d="M3106.95,5809.55L3094.17,5816.93L3106.95,5824.31L3119.74,5816.93L3106.95,5809.55Z" style="fill:rgb(85,186,20);"/>
            </g>
            <g transform="matrix(-2,-2.44929e-16,-2.44929e-16,2,9786.24,-5348.64)">
                <path d="M3106.95,5809.55L3094.17,5816.93L3106.95,5824.31L3119.74,5816.93L3106.95,5809.55Z" style="fill:rgb(92,218,0);"/>
            </g>
            <g transform="matrix(2,0,0,2,-2667.14,-5363.41)">
                <path d="M3106.95,5809.55L3106.95,5824.31L3119.74,5816.93L3106.95,5809.55Z" style="fill:rgb(85,186,20);"/>
            </g>
            <g transform="matrix(2,0,0,2,-2641.57,-5378.17)">
                <path d="M3106.95,5809.55L3094.17,5816.93L3106.95,5824.31L3119.74,5816.93L3106.95,5809.55Z" style="fill:rgb(104,255,9);"/>
            </g>
            <g transform="matrix(-2,2.44929e-16,2.44929e-16,2,9811.81,-5333.88)">
                <path d="M3106.95,5809.55L3094.17,5816.93L3106.95,5824.31L3119.74,5816.93L3106.95,5809.55Z" style="fill:rgb(88,199,0);"/>
            </g>
            <g transform="matrix(2,0,0,2,-2615.99,-5392.93)">
                <path d="M3106.95,5809.55L3094.17,5816.93L3106.95,5824.31L3119.74,5816.93L3106.95,5809.55Z" style="fill:rgb(101,199,0);"/>
            </g>
            <g transform="matrix(2,0,0,2,-2564.85,-5363.41)">
                <path d="M3106.95,5809.55L3094.17,5816.93L3106.95,5824.31L3119.74,5816.93L3106.95,5809.55Z" style="fill:rgb(104,255,9);"/>
            </g>
        </g>
        <g transform="matrix(2.85897,0,0,2.85897,2448.65,1377.69)">
            <path d="M2713.44,6322.61L2704.56,6320.26C2700.38,6319.24 2697.72,6315.06 2697.72,6311.79C2697.72,6307.3 2702.11,6301.59 2708.44,6301.59C2714.47,6301.59 2718.86,6304.96 2718.86,6309.45L2730.06,6309.45C2730.06,6300.06 2719.87,6292.11 2708.44,6292.11C2695.99,6292.11 2686.92,6300.77 2686.92,6312C2686.92,6321.79 2695.28,6329.04 2704.26,6330.98C2710.28,6332.51 2711.51,6332.71 2713.45,6333.22C2719.36,6334.65 2724.16,6338.32 2724.16,6344.75C2724.16,6349.55 2719.26,6356.49 2709.36,6356.49C2701.09,6356.49 2694.97,6348.53 2694.97,6343.73L2683.15,6343.73C2683.15,6356.69 2695.58,6366.57 2710.38,6366.57C2724.57,6366.57 2735.27,6357 2735.27,6344.04C2735.27,6331.59 2726.4,6325.36 2713.44,6322.61L2713.44,6322.61Z" style="fill-rule:nonzero;"/>
            <path d="M2777.81,6351.99L2789.85,6351.99C2785.67,6360.45 2777.2,6366.17 2767.1,6366.17C2752.42,6366.17 2740.99,6354.23 2740.99,6339.75C2740.99,6325.16 2752.42,6313.23 2767.1,6313.23C2781.69,6313.23 2792.8,6325.16 2792.8,6339.75C2792.8,6341.08 2792.7,6342.41 2792.5,6343.63L2751.7,6343.63C2753.23,6351.38 2759.35,6357.09 2766.9,6357.09C2771.28,6357.09 2775.06,6355.25 2777.81,6351.99ZM2751.91,6335.36L2781.59,6335.36C2779.95,6328.02 2774.24,6322.62 2766.9,6322.62C2759.56,6322.62 2753.64,6328.02 2751.91,6335.36Z" style="fill-rule:nonzero;"/>
            <path d="M2826.68,6313.13C2819.64,6313.13 2815.05,6315.37 2812.49,6318.84L2812.49,6314.15L2802.41,6314.15L2802.41,6365.15L2812.49,6365.15L2812.49,6337.09C2812.49,6326.99 2819.33,6323.52 2826.68,6323.52C2827.9,6323.52 2829.43,6323.62 2830.96,6324.03L2830.96,6313.44C2829.53,6313.23 2828.1,6313.13 2826.68,6313.13Z" style="fill-rule:nonzero;"/>
            <path d="M2848.52,6314.14L2838.01,6314.14L2861.98,6366.07L2864.53,6366.07L2888.6,6314.14L2878.1,6314.14L2863.2,6345.77L2848.52,6314.14Z" style="fill-rule:nonzero;"/>
            <path d="M2930.53,6351.99L2942.57,6351.99C2938.39,6360.45 2929.92,6366.17 2919.82,6366.17C2905.14,6366.17 2893.71,6354.23 2893.71,6339.75C2893.71,6325.16 2905.14,6313.23 2919.82,6313.23C2934.41,6313.23 2945.53,6325.16 2945.53,6339.75C2945.53,6341.08 2945.43,6342.41 2945.22,6343.63L2904.42,6343.63C2905.95,6351.38 2912.07,6357.09 2919.62,6357.09C2924.01,6357.09 2927.78,6355.25 2930.53,6351.99ZM2904.63,6335.36L2934.31,6335.36C2932.68,6328.02 2926.96,6322.62 2919.62,6322.62C2912.28,6322.62 2906.36,6328.02 2904.63,6335.36Z" style="fill-rule:nonzero;"/>
            <path d="M2979.4,6313.13C2972.36,6313.13 2967.77,6315.37 2965.22,6318.84L2965.22,6314.15L2955.13,6314.15L2955.13,6365.15L2965.22,6365.15L2965.22,6337.09C2965.22,6326.99 2972.05,6323.52 2979.4,6323.52C2980.62,6323.52 2982.15,6323.62 2983.68,6324.03L2983.68,6313.44C2982.25,6313.23 2980.83,6313.13 2979.4,6313.13Z" style="fill-rule:nonzero;"/>
            <path d="M3026.13,6322.61L3017.25,6320.26C3013.06,6319.24 3010.41,6315.06 3010.41,6311.79C3010.41,6307.3 3014.8,6301.59 3021.13,6301.59C3027.15,6301.59 3031.54,6304.96 3031.54,6309.45L3042.75,6309.45C3042.75,6300.06 3032.56,6292.11 3021.13,6292.11C3008.68,6292.11 2999.61,6300.77 2999.61,6312C2999.61,6321.79 3007.97,6329.04 3016.94,6330.98C3022.97,6332.51 3024.19,6332.71 3026.13,6333.22C3032.05,6334.65 3036.85,6338.32 3036.85,6344.75C3036.85,6349.55 3031.95,6356.49 3022.05,6356.49C3013.78,6356.49 3007.66,6348.53 3007.66,6343.73L2995.83,6343.73C2995.83,6356.69 3008.27,6366.57 3023.07,6366.57C3037.25,6366.57 3047.95,6357 3047.95,6344.04C3047.95,6331.59 3039.09,6325.36 3026.13,6322.61L3026.13,6322.61Z" style="fill-rule:nonzero;"/>
            <path d="M3073.15,6323.52L3084.99,6323.52L3084.99,6314.15L3073.15,6314.15L3073.15,6291.91L3063.17,6294.97L3063.17,6314.15L3054.09,6314.15L3054.09,6323.52L3063.17,6323.52L3063.17,6350.47C3063.17,6361.99 3068.97,6366.68 3080.09,6366.68L3080.09,6356.49C3075.91,6356.49 3073.15,6355.16 3073.15,6350.47L3073.15,6323.52Z" style="fill-rule:nonzero;"/>
            <path d="M3133.55,6365.15L3133.55,6359.03C3133.55,6359.03 3128.45,6366.06 3117.23,6366.06C3102.64,6366.06 3090.81,6354.23 3090.81,6339.85C3090.81,6325.16 3102.64,6313.54 3117.23,6313.54C3128.45,6313.54 3133.55,6320.57 3133.55,6320.57L3133.55,6314.15L3143.44,6314.15L3143.44,6365.15L3133.55,6365.15ZM3117.43,6357.19C3126.31,6357.19 3133.34,6349.44 3133.34,6340.06C3133.34,6330.57 3126.31,6322.72 3117.43,6322.72C3108.56,6322.72 3101.52,6330.57 3101.52,6340.06C3101.52,6349.44 3108.56,6357.19 3117.43,6357.19Z" style="fill-rule:nonzero;"/>
            <path d="M3178.64,6313.13C3171.6,6313.13 3167.01,6315.37 3164.46,6318.84L3164.46,6314.15L3154.37,6314.15L3154.37,6365.15L3164.46,6365.15L3164.46,6337.09C3164.46,6326.99 3171.29,6323.52 3178.64,6323.52C3179.86,6323.52 3181.39,6323.62 3182.92,6324.03L3182.92,6313.44C3181.49,6313.23 3180.07,6313.13 3178.64,6313.13Z" style="fill-rule:nonzero;"/>
            <path d="M3213.12,6323.52L3224.95,6323.52L3224.95,6314.15L3213.12,6314.15L3213.12,6291.91L3203.14,6294.97L3203.14,6314.15L3194.06,6314.15L3194.06,6323.52L3203.14,6323.52L3203.14,6350.47C3203.14,6361.99 3208.94,6366.68 3220.06,6366.68L3220.06,6356.49C3215.88,6356.49 3213.12,6355.16 3213.12,6350.47L3213.12,6323.52Z" style="fill-rule:nonzero;"/>
            <path d="M3268.52,6351.99L3280.56,6351.99C3276.37,6360.45 3267.91,6366.17 3257.81,6366.17C3243.12,6366.17 3231.7,6354.23 3231.7,6339.75C3231.7,6325.16 3243.12,6313.23 3257.81,6313.23C3272.4,6313.23 3283.51,6325.16 3283.51,6339.75C3283.51,6341.08 3283.41,6342.41 3283.21,6343.63L3242.41,6343.63C3243.94,6351.38 3250.06,6357.09 3257.61,6357.09C3261.99,6357.09 3265.77,6355.25 3268.52,6351.99ZM3242.61,6335.36L3272.29,6335.36C3270.66,6328.02 3264.95,6322.62 3257.61,6322.62C3250.26,6322.62 3244.35,6328.02 3242.61,6335.36Z" style="fill-rule:nonzero;"/>
            <path d="M3317.38,6313.13C3310.34,6313.13 3305.75,6315.37 3303.2,6318.84L3303.2,6314.15L3293.12,6314.15L3293.12,6365.15L3303.2,6365.15L3303.2,6337.09C3303.2,6326.99 3310.04,6323.52 3317.38,6323.52C3318.61,6323.52 3320.14,6323.62 3321.67,6324.03L3321.67,6313.44C3320.24,6313.23 3318.81,6313.13 3317.38,6313.13Z" style="fill-rule:nonzero;"/>
            <path d="M3358.17,6334.15L3358.17,6327.2C3358.17,6323.98 3360.46,6321.62 3363.25,6321.62C3364.12,6321.62 3364.93,6321.81 3365.61,6322.3L3368.21,6316.98C3366.6,6316.3 3364.93,6315.92 3363.25,6315.92C3357.05,6315.92 3352.04,6321 3352.04,6327.27L3352.04,6334.15L3346.52,6334.15L3346.52,6339.85L3352.04,6339.85L3352.04,6365.15L3358.17,6365.15L3358.17,6339.85L3365.36,6339.85L3365.36,6334.15L3358.17,6334.15Z" style="fill-rule:nonzero;"/>
            <path d="M3385.58,6365.52C3376.78,6365.52 3369.65,6358.39 3369.65,6349.59C3369.65,6340.79 3376.78,6333.72 3385.58,6333.72C3394.38,6333.72 3401.45,6340.79 3401.45,6349.59C3401.45,6358.39 3394.38,6365.52 3385.58,6365.52ZM3385.45,6360.13C3390.72,6360.13 3395,6355.48 3395,6349.71C3395,6344.01 3390.72,6339.3 3385.45,6339.3C3380.12,6339.3 3375.91,6344.01 3375.91,6349.71C3375.91,6355.48 3380.12,6360.13 3385.45,6360.13Z" style="fill-rule:nonzero;"/>
            <path d="M3421.91,6333.53C3417.63,6333.53 3414.84,6334.9 3413.29,6337L3413.29,6334.15L3407.16,6334.15L3407.16,6365.15L3413.29,6365.15L3413.29,6348.1C3413.29,6341.96 3417.45,6339.85 3421.91,6339.85C3422.66,6339.85 3423.59,6339.91 3424.51,6340.16L3424.51,6333.72C3423.65,6333.6 3422.78,6333.53 3421.91,6333.53Z" style="fill-rule:nonzero;"/>
            <path d="M3522.23,6365.15L3513.35,6292.11L3510.09,6292.11L3485.2,6347.3L3460.52,6292.11L3457.25,6292.11L3448.38,6365.15L3458.07,6365.15L3464.09,6324.96L3483.67,6366.68L3486.93,6366.68L3506.52,6325.16L3512.54,6365.15L3522.23,6365.15Z" style="fill-rule:nonzero;"/>
            <path d="M3537.43,6300.38C3533.56,6300.38 3530.5,6297.42 3530.5,6293.75C3530.5,6290.18 3533.56,6287.22 3537.43,6287.22C3541.2,6287.22 3544.36,6290.18 3544.36,6293.75C3544.36,6297.42 3541.2,6300.38 3537.43,6300.38ZM3542.63,6314.24L3542.63,6365.15L3532.54,6365.15L3532.54,6314.24L3542.63,6314.24Z" style="fill-rule:nonzero;"/>
            <path d="M3581.2,6313.13C3574.16,6313.13 3569.56,6315.37 3567.01,6318.84L3567.01,6314.15L3556.93,6314.15L3556.93,6365.15L3567.01,6365.15L3567.01,6337.09C3567.01,6326.99 3573.85,6323.52 3581.2,6323.52C3585.28,6323.52 3592.33,6326.58 3592.33,6336.07L3592.33,6365.15L3602.41,6365.15L3602.41,6336.07C3602.41,6318.02 3590.59,6313.13 3581.2,6313.13Z" style="fill-rule:nonzero;"/>
            <path d="M3646.59,6351.99L3658.63,6351.99C3654.44,6360.45 3645.98,6366.17 3635.88,6366.17C3621.19,6366.17 3609.77,6354.23 3609.77,6339.75C3609.77,6325.16 3621.19,6313.23 3635.88,6313.23C3650.47,6313.23 3661.58,6325.16 3661.58,6339.75C3661.58,6341.08 3661.48,6342.41 3661.28,6343.63L3620.48,6343.63C3622.01,6351.38 3628.13,6357.09 3635.68,6357.09C3640.06,6357.09 3643.84,6355.25 3646.59,6351.99ZM3620.68,6335.36L3650.36,6335.36C3648.73,6328.02 3643.02,6322.62 3635.68,6322.62C3628.33,6322.62 3622.42,6328.02 3620.68,6335.36Z" style="fill-rule:nonzero;"/>
            <path d="M3707.08,6329.24L3718.51,6329.24C3714.84,6319.85 3706.27,6313.23 3695.45,6313.23C3680.97,6313.23 3669.04,6324.95 3669.04,6339.55C3669.04,6354.04 3680.97,6365.86 3695.45,6365.86C3706.47,6365.86 3715.04,6359.14 3718.61,6349.55L3707.49,6349.55C3704.94,6353.94 3700.66,6356.9 3695.35,6356.9C3686.48,6356.9 3679.44,6349.24 3679.44,6339.65C3679.44,6330.26 3686.48,6322.5 3695.35,6322.5C3700.35,6322.5 3704.53,6325.05 3707.08,6329.24Z" style="fill-rule:nonzero;"/>
            <path d="M3751.56,6313.13C3744.52,6313.13 3739.93,6315.37 3737.38,6318.84L3737.38,6314.15L3727.3,6314.15L3727.3,6365.15L3737.38,6365.15L3737.38,6337.09C3737.38,6326.99 3744.22,6323.52 3751.56,6323.52C3752.79,6323.52 3754.32,6323.62 3755.85,6324.03L3755.85,6313.44C3754.42,6313.23 3752.99,6313.13 3751.56,6313.13Z" style="fill-rule:nonzero;"/>
            <path d="M3808.39,6365.15L3808.39,6359.03C3808.39,6359.03 3803.29,6366.06 3792.07,6366.06C3777.49,6366.06 3765.66,6354.23 3765.66,6339.85C3765.66,6325.16 3777.49,6313.54 3792.07,6313.54C3803.29,6313.54 3808.39,6320.57 3808.39,6320.57L3808.39,6314.15L3818.28,6314.15L3818.28,6365.15L3808.39,6365.15ZM3792.28,6357.19C3801.15,6357.19 3808.19,6349.44 3808.19,6340.06C3808.19,6330.57 3801.15,6322.72 3792.28,6322.72C3783.4,6322.72 3776.36,6330.57 3776.36,6340.06C3776.36,6349.44 3783.4,6357.19 3792.28,6357.19Z" style="fill-rule:nonzero;"/>
            <path d="M3881.23,6323.52L3893.06,6323.52L3893.06,6314.15L3881.23,6314.15L3881.23,6291.9L3871.24,6294.96L3871.24,6314.15L3846.54,6314.15L3846.54,6302.72C3846.54,6297.41 3850.32,6293.53 3854.91,6293.53C3856.34,6293.53 3857.67,6293.84 3858.79,6294.65L3863.08,6285.89C3860.42,6284.77 3857.67,6284.16 3854.91,6284.16C3844.71,6284.16 3836.45,6292.51 3836.45,6302.82L3836.45,6314.15L3827.38,6314.15L3827.38,6323.52L3836.45,6323.52L3836.45,6365.15L3846.54,6365.15L3846.54,6323.52L3871.24,6323.52L3871.24,6348.63C3871.24,6360.15 3877.05,6365.96 3888.17,6365.96L3888.17,6355.77C3883.88,6355.77 3881.23,6353.32 3881.23,6348.63L3881.23,6323.52Z" style="fill-rule:nonzero;"/>
        </g>
    </g>
</svg>
