<?xml version="1.0" encoding="UTF-8" standalone="no"?>
<!DOCTYPE svg PUBLIC "-//W3C//DTD SVG 1.1//EN" "http://www.w3.org/Graphics/SVG/1.1/DTD/svg11.dtd">
<svg width="100%" height="100%" viewBox="0 0 887 450" version="1.1" xmlns="http://www.w3.org/2000/svg" xmlns:xlink="http://www.w3.org/1999/xlink" xml:space="preserve" xmlns:serif="http://www.serif.com/" style="fill-rule:evenodd;clip-rule:evenodd;stroke-linejoin:round;stroke-miterlimit:2;">
    <g transform="matrix(1,0,0,1,-9797.49,-20866.2)">
        <g transform="matrix(2.65039,0,0,2.65039,397.309,4442.75)">
            <g transform="matrix(1,-1.11022e-16,1.11022e-16,1,554.887,483.049)">
                <path d="M3119.74,5787.4L3094.07,5772.58L3068.64,5787.38L3068.6,5802.16L3094.17,5816.93L3119.74,5802.16L3119.74,5787.4Z" style="fill:rgb(114,85,43);"/>
            </g>
            <g transform="matrix(1,-1.11022e-16,1.11022e-16,1,452.598,423.993)">
                <path d="M3119.74,5787.4L3094.17,5772.64L3094.17,5816.93L3119.74,5802.16L3119.74,5787.4Z" style="fill:rgb(114,85,43);"/>
            </g>
            <g transform="matrix(1,-1.11022e-16,1.11022e-16,1,503.749,512.586)">
                <path d="M3119.74,5787.4L3081.38,5765.25L3119.73,5743.1L3119.73,5728.34L3094.16,5713.57L3043.02,5743.1L3043.02,5787.39L3055.8,5794.78L3043.02,5802.16L3043.02,5846.45L3119.74,5802.16L3119.74,5787.4Z" style="fill:rgb(114,85,43);"/>
            </g>
            <g transform="matrix(1,-1.11022e-16,1.11022e-16,1,561.28,471.977)">
                <path d="M3113.34,5798.47L3087.78,5813.24L3087.77,5828L3113.34,5813.24L3113.34,5798.47Z" style="fill:rgb(114,85,43);"/>
            </g>
            <g transform="matrix(1,-1.11022e-16,1.11022e-16,1,467.206,550.537)">
                <path d="M3079.56,5793.73L3079.56,5808.5L3105.13,5793.73L3105.13,5778.97L3079.56,5793.73Z" style="fill:rgb(127,97,46);"/>
            </g>
            <g transform="matrix(0.5,-0.866025,0.866025,0.5,-2999.57,6108.05)">
                <path d="M3094.17,5802.16L3081.38,5809.55L3106.95,5824.31L3119.74,5816.93L3094.17,5802.16Z" style="fill:rgb(109,85,39);"/>
            </g>
            <g transform="matrix(0.5,-0.866025,0.866025,0.5,-2999.57,6048.99)">
                <path d="M3094.17,5802.16L3094.17,5816.93L3106.95,5824.31L3119.74,5816.93L3094.17,5802.16Z" style="fill:rgb(111,82,40);"/>
            </g>
            <g transform="matrix(-0.5,-0.866025,-0.866025,0.5,10221,6063.76)">
                <path d="M3094.17,5802.16L3081.38,5809.55L3106.95,5824.31L3119.74,5816.93L3094.17,5802.16Z" style="fill:rgb(62,48,28);"/>
            </g>
            <g transform="matrix(-1,-3.33067e-16,-3.33067e-16,1,6663.31,481.204)">
                <path d="M3116.54,5804.01L3090.97,5818.78L3103.76,5826.16L3116.54,5818.78L3116.54,5804.01Z" style="fill:rgb(62,48,28);"/>
            </g>
            <g transform="matrix(1,-1.11022e-16,1.11022e-16,1,465.386,416.612)">
                <path d="M3107,5794.76L3081.38,5809.55L3081.33,5824.34L3106.95,5809.54L3107,5794.76Z" style="fill:rgb(117,91,40);"/>
            </g>
            <g transform="matrix(0.5,-0.866025,0.866025,0.5,-2974,6034.23)">
                <path d="M3094.17,5802.16L3081.38,5809.55L3106.95,5824.31L3119.74,5816.93L3094.17,5802.16Z" style="fill:rgb(101,76,40);"/>
            </g>
            <g transform="matrix(0.5,-0.866025,0.866025,0.5,-2974,6093.29)">
                <path d="M3094.17,5802.16L3081.38,5809.55L3106.95,5824.31L3119.74,5816.93L3094.17,5802.16Z" style="fill:rgb(111,82,40);"/>
            </g>
            <g transform="matrix(2,0,0,2,-2667.14,-5304.35)">
                <path d="M3106.95,5809.55L3106.95,5824.31L3119.74,5816.93L3106.95,5809.55Z" style="fill:rgb(91,234,0);"/>
            </g>
            <g transform="matrix(2,0,0,2,-2667.14,-5422.46)">
                <path d="M3106.95,5809.55L3106.95,5824.31L3119.74,5816.93L3106.95,5809.55Z" style="fill:rgb(104,255,9);"/>
            </g>
            <g transform="matrix(-2,-2.44929e-16,-2.44929e-16,2,9786.24,-5319.12)">
                <path d="M3106.95,5809.55L3094.17,5816.93L3106.95,5824.31L3119.74,5816.93L3106.95,5809.55Z" style="fill:rgb(85,186,20);"/>
            </g>
            <g transform="matrix(-2,-2.44929e-16,-2.44929e-16,2,9786.24,-5348.64)">
                <path d="M3106.95,5809.55L3094.17,5816.93L3106.95,5824.31L3119.74,5816.93L3106.95,5809.55Z" style="fill:rgb(92,218,0);"/>
            </g>
            <g transform="matrix(2,0,0,2,-2667.14,-5363.41)">
                <path d="M3106.95,5809.55L3106.95,5824.31L3119.74,5816.93L3106.95,5809.55Z" style="fill:rgb(85,186,20);"/>
            </g>
            <g transform="matrix(2,0,0,2,-2641.57,-5378.17)">
                <path d="M3106.95,5809.55L3094.17,5816.93L3106.95,5824.31L3119.74,5816.93L3106.95,5809.55Z" style="fill:rgb(104,255,9);"/>
            </g>
            <g transform="matrix(-2,2.44929e-16,2.44929e-16,2,9811.81,-5333.88)">
                <path d="M3106.95,5809.55L3094.17,5816.93L3106.95,5824.31L3119.74,5816.93L3106.95,5809.55Z" style="fill:rgb(88,199,0);"/>
            </g>
            <g transform="matrix(2,0,0,2,-2615.99,-5392.93)">
                <path d="M3106.95,5809.55L3094.17,5816.93L3106.95,5824.31L3119.74,5816.93L3106.95,5809.55Z" style="fill:rgb(101,199,0);"/>
            </g>
            <g transform="matrix(2,0,0,2,-2564.85,-5363.41)">
                <path d="M3106.95,5809.55L3094.17,5816.93L3106.95,5824.31L3119.74,5816.93L3106.95,5809.55Z" style="fill:rgb(104,255,9);"/>
            </g>
        </g>
        <g transform="matrix(1.45797,0,0,1.45797,5007.71,11713.5)">
            <path d="M3612.17,6322.06L3603.17,6319.68C3598.93,6318.65 3596.25,6314.41 3596.25,6311.1C3596.25,6306.55 3600.69,6300.76 3607.1,6300.76C3613.2,6300.76 3617.65,6304.17 3617.65,6308.72L3629.01,6308.72C3629.01,6299.22 3618.68,6291.16 3607.1,6291.16C3594.49,6291.16 3585.31,6299.94 3585.31,6311.31C3585.31,6321.23 3593.77,6328.57 3602.86,6330.53C3608.97,6332.08 3610.21,6332.29 3612.17,6332.81C3618.17,6334.25 3623.03,6337.98 3623.03,6344.49C3623.03,6349.35 3618.06,6356.38 3608.03,6356.38C3599.66,6356.38 3593.46,6348.31 3593.46,6343.45L3581.48,6343.45C3581.48,6356.58 3594.08,6366.59 3609.07,6366.59C3623.44,6366.59 3634.28,6356.89 3634.28,6343.76C3634.28,6331.15 3625.3,6324.85 3612.17,6322.06L3612.17,6322.06Z" style="fill-rule:nonzero;"/>
            <path d="M3677.38,6351.82L3689.57,6351.82C3685.33,6360.39 3676.76,6366.18 3666.53,6366.18C3651.65,6366.18 3640.08,6354.09 3640.08,6339.42C3640.08,6324.65 3651.65,6312.56 3666.53,6312.56C3681.3,6312.56 3692.56,6324.65 3692.56,6339.42C3692.56,6340.77 3692.46,6342.11 3692.25,6343.35L3650.93,6343.35C3652.47,6351.2 3658.67,6356.98 3666.32,6356.98C3670.76,6356.98 3674.59,6355.12 3677.38,6351.82ZM3651.13,6334.97L3681.2,6334.97C3679.54,6327.54 3673.76,6322.07 3666.32,6322.07C3658.88,6322.07 3652.89,6327.54 3651.13,6334.97Z" style="fill-rule:nonzero;"/>
            <path d="M3726.87,6312.45C3719.74,6312.45 3715.09,6314.73 3712.51,6318.23L3712.51,6313.49L3702.29,6313.49L3702.29,6365.15L3712.51,6365.15L3712.51,6336.73C3712.51,6326.5 3719.43,6322.98 3726.87,6322.98C3728.11,6322.98 3729.66,6323.09 3731.21,6323.5L3731.21,6312.76C3729.77,6312.56 3728.32,6312.45 3726.87,6312.45Z" style="fill-rule:nonzero;"/>
            <path d="M3749,6313.48L3738.36,6313.48L3762.64,6366.08L3765.22,6366.08L3789.6,6313.48L3778.96,6313.48L3763.88,6345.52L3749,6313.48Z" style="fill-rule:nonzero;"/>
            <path d="M3832.08,6351.82L3844.27,6351.82C3840.04,6360.39 3831.46,6366.18 3821.23,6366.18C3806.35,6366.18 3794.78,6354.09 3794.78,6339.42C3794.78,6324.65 3806.35,6312.56 3821.23,6312.56C3836.01,6312.56 3847.27,6324.65 3847.27,6339.42C3847.27,6340.77 3847.16,6342.11 3846.96,6343.35L3805.63,6343.35C3807.18,6351.2 3813.38,6356.98 3821.03,6356.98C3825.47,6356.98 3829.29,6355.12 3832.08,6351.82ZM3805.84,6334.97L3835.9,6334.97C3834.25,6327.54 3828.46,6322.07 3821.03,6322.07C3813.59,6322.07 3807.59,6327.54 3805.84,6334.97Z" style="fill-rule:nonzero;"/>
            <path d="M3881.58,6312.45C3874.45,6312.45 3869.8,6314.73 3867.21,6318.23L3867.21,6313.49L3856.99,6313.49L3856.99,6365.15L3867.21,6365.15L3867.21,6336.73C3867.21,6326.5 3874.14,6322.98 3881.58,6322.98C3882.82,6322.98 3884.37,6323.09 3885.92,6323.5L3885.92,6312.76C3884.47,6312.56 3883.03,6312.45 3881.58,6312.45Z" style="fill-rule:nonzero;"/>
            <path d="M3586.54,6432L3577.54,6429.63C3573.31,6428.59 3570.62,6424.35 3570.62,6421.05C3570.62,6416.5 3575.06,6410.71 3581.47,6410.71C3587.58,6410.71 3592.02,6414.12 3592.02,6418.67L3603.38,6418.67C3603.38,6409.16 3593.05,6401.11 3581.47,6401.11C3568.86,6401.11 3559.68,6409.88 3559.68,6421.25C3559.68,6431.18 3568.14,6438.52 3577.24,6440.48C3583.34,6442.03 3584.58,6442.24 3586.54,6442.75C3592.54,6444.2 3597.4,6447.92 3597.4,6454.43C3597.4,6459.29 3592.43,6466.32 3582.4,6466.32C3574.03,6466.32 3567.83,6458.26 3567.83,6453.4L3555.85,6453.4C3555.85,6466.53 3568.45,6476.54 3583.44,6476.54C3597.81,6476.54 3608.65,6466.84 3608.65,6453.71C3608.65,6441.1 3599.67,6434.79 3586.54,6432L3586.54,6432Z" style="fill-rule:nonzero;"/>
            <path d="M3634.17,6432.93L3646.16,6432.93L3646.16,6423.43L3634.17,6423.43L3634.17,6400.9L3624.06,6404.01L3624.06,6423.43L3614.86,6423.43L3614.86,6432.93L3624.06,6432.93L3624.06,6460.22C3624.06,6471.9 3629.94,6476.64 3641.2,6476.64L3641.2,6466.32C3636.96,6466.32 3634.17,6464.98 3634.17,6460.22L3634.17,6432.93Z" style="fill-rule:nonzero;"/>
            <path d="M3695.36,6475.09L3695.36,6468.89C3695.36,6468.89 3690.19,6476.02 3678.82,6476.02C3664.05,6476.02 3652.07,6464.04 3652.07,6449.47C3652.07,6434.59 3664.05,6422.81 3678.82,6422.81C3690.19,6422.81 3695.36,6429.94 3695.36,6429.94L3695.36,6423.43L3705.38,6423.43L3705.38,6475.09L3695.36,6475.09ZM3679.03,6467.03C3688.02,6467.03 3695.15,6459.18 3695.15,6449.68C3695.15,6440.07 3688.02,6432.11 3679.03,6432.11C3670.04,6432.11 3662.91,6440.07 3662.91,6449.68C3662.91,6459.18 3670.04,6467.03 3679.03,6467.03Z" style="fill-rule:nonzero;"/>
            <path d="M3741.03,6422.4C3733.9,6422.4 3729.25,6424.67 3726.67,6428.18L3726.67,6423.43L3716.45,6423.43L3716.45,6475.09L3726.67,6475.09L3726.67,6446.67C3726.67,6436.44 3733.59,6432.93 3741.03,6432.93C3742.27,6432.93 3743.82,6433.03 3745.37,6433.44L3745.37,6422.71C3743.92,6422.5 3742.48,6422.4 3741.03,6422.4Z" style="fill-rule:nonzero;"/>
            <path d="M3775.96,6432.93L3787.95,6432.93L3787.95,6423.43L3775.96,6423.43L3775.96,6400.9L3765.85,6404.01L3765.85,6423.43L3756.65,6423.43L3756.65,6432.93L3765.85,6432.93L3765.85,6460.22C3765.85,6471.9 3771.73,6476.64 3782.99,6476.64L3782.99,6466.32C3778.75,6466.32 3775.96,6464.98 3775.96,6460.22L3775.96,6432.93Z" style="fill-rule:nonzero;"/>
            <path d="M3832.08,6461.76L3844.27,6461.76C3840.04,6470.34 3831.46,6476.13 3821.23,6476.13C3806.35,6476.13 3794.78,6464.03 3794.78,6449.37C3794.78,6434.59 3806.35,6422.5 3821.23,6422.5C3836.01,6422.5 3847.27,6434.59 3847.27,6449.37C3847.27,6450.71 3847.16,6452.06 3846.96,6453.3L3805.63,6453.3C3807.18,6461.14 3813.38,6466.93 3821.03,6466.93C3825.47,6466.93 3829.29,6465.07 3832.08,6461.76ZM3805.84,6444.92L3835.9,6444.92C3834.25,6437.48 3828.46,6432.01 3821.03,6432.01C3813.59,6432.01 3807.59,6437.48 3805.84,6444.92Z" style="fill-rule:nonzero;"/>
            <path d="M3881.58,6422.4C3874.45,6422.4 3869.8,6424.67 3867.21,6428.18L3867.21,6423.43L3856.99,6423.43L3856.99,6475.09L3867.21,6475.09L3867.21,6446.67C3867.21,6436.44 3874.14,6432.93 3881.58,6432.93C3882.82,6432.93 3884.37,6433.03 3885.92,6433.44L3885.92,6422.71C3884.47,6422.5 3883.03,6422.4 3881.58,6422.4Z" style="fill-rule:nonzero;"/>
            <path d="M3413.15,6554.05L3413.15,6547.1C3413.15,6543.87 3415.45,6541.51 3418.24,6541.51C3419.1,6541.51 3419.91,6541.7 3420.59,6542.2L3423.2,6536.87C3421.58,6536.19 3419.91,6535.82 3418.24,6535.82C3412.04,6535.82 3407.02,6540.89 3407.02,6547.16L3407.02,6554.05L3401.5,6554.05L3401.5,6559.74L3407.02,6559.74L3407.02,6585.04L3413.15,6585.04L3413.15,6559.74L3420.34,6559.74L3420.34,6554.05L3413.15,6554.05Z" style="fill-rule:nonzero;"/>
            <path d="M3440.56,6585.41C3431.76,6585.41 3424.63,6578.28 3424.63,6569.48C3424.63,6560.68 3431.76,6553.61 3440.56,6553.61C3449.37,6553.61 3456.43,6560.68 3456.43,6569.48C3456.43,6578.28 3449.37,6585.41 3440.56,6585.41ZM3440.44,6580.02C3445.71,6580.02 3449.99,6575.37 3449.99,6569.61C3449.99,6563.9 3445.71,6559.19 3440.44,6559.19C3435.11,6559.19 3430.89,6563.9 3430.89,6569.61C3430.89,6575.37 3435.11,6580.02 3440.44,6580.02Z" style="fill-rule:nonzero;"/>
            <path d="M3476.89,6553.43C3472.62,6553.43 3469.83,6554.79 3468.28,6556.89L3468.28,6554.05L3462.14,6554.05L3462.14,6585.04L3468.28,6585.04L3468.28,6567.99C3468.28,6561.85 3472.43,6559.74 3476.89,6559.74C3477.64,6559.74 3478.57,6559.81 3479.5,6560.05L3479.5,6553.61C3478.63,6553.49 3477.76,6553.43 3476.89,6553.43Z" style="fill-rule:nonzero;"/>
            <path d="M3567.62,6585.05L3559.83,6520.92L3556.97,6520.92L3535.12,6569.37L3513.44,6520.92L3510.58,6520.92L3502.79,6585.05L3511.3,6585.05L3516.58,6549.76L3533.77,6586.39L3536.64,6586.39L3553.83,6549.94L3559.11,6585.05L3567.62,6585.05Z" style="fill-rule:nonzero;"/>
            <path d="M3580.97,6528.18C3577.57,6528.18 3574.89,6525.58 3574.89,6522.36C3574.89,6519.22 3577.57,6516.62 3580.97,6516.62C3584.28,6516.62 3587.06,6519.22 3587.06,6522.36C3587.06,6525.58 3584.28,6528.18 3580.97,6528.18ZM3585.53,6540.35L3585.53,6585.04L3576.68,6585.04L3576.68,6540.35L3585.53,6540.35Z" style="fill-rule:nonzero;"/>
            <path d="M3619.39,6539.37C3613.21,6539.37 3609.18,6541.34 3606.94,6544.38L3606.94,6540.27L3598.08,6540.27L3598.08,6585.04L3606.94,6585.04L3606.94,6560.41C3606.94,6551.54 3612.94,6548.5 3619.39,6548.5C3622.98,6548.5 3629.16,6551.18 3629.16,6559.51L3629.16,6585.04L3638.02,6585.04L3638.02,6559.51C3638.02,6543.67 3627.64,6539.37 3619.39,6539.37Z" style="fill-rule:nonzero;"/>
            <path d="M3676.8,6573.49L3687.37,6573.49C3683.7,6580.92 3676.27,6585.94 3667.4,6585.94C3654.51,6585.94 3644.48,6575.46 3644.48,6562.74C3644.48,6549.94 3654.51,6539.46 3667.4,6539.46C3680.21,6539.46 3689.97,6549.94 3689.97,6562.74C3689.97,6563.91 3689.88,6565.08 3689.7,6566.15L3653.88,6566.15C3655.22,6572.95 3660.6,6577.96 3667.22,6577.96C3671.07,6577.96 3674.39,6576.35 3676.8,6573.49ZM3654.06,6558.89L3680.12,6558.89C3678.68,6552.44 3673.67,6547.7 3667.22,6547.7C3660.78,6547.7 3655.58,6552.44 3654.06,6558.89Z" style="fill-rule:nonzero;"/>
            <path d="M3729.91,6553.52L3739.94,6553.52C3736.72,6545.28 3729.2,6539.46 3719.7,6539.46C3706.98,6539.46 3696.51,6549.75 3696.51,6562.57C3696.51,6575.29 3706.98,6585.67 3719.7,6585.67C3729.37,6585.67 3736.9,6579.76 3740.03,6571.35L3730.27,6571.35C3728.03,6575.2 3724.27,6577.8 3719.61,6577.8C3711.82,6577.8 3705.64,6571.08 3705.64,6562.65C3705.64,6554.41 3711.82,6547.6 3719.61,6547.6C3724,6547.6 3727.67,6549.84 3729.91,6553.52Z" style="fill-rule:nonzero;"/>
            <path d="M3768.96,6539.37C3762.78,6539.37 3758.75,6541.34 3756.51,6544.38L3756.51,6540.27L3747.66,6540.27L3747.66,6585.04L3756.51,6585.04L3756.51,6560.41C3756.51,6551.54 3762.51,6548.5 3768.96,6548.5C3770.04,6548.5 3771.38,6548.59 3772.72,6548.94L3772.72,6539.64C3771.47,6539.46 3770.22,6539.37 3768.96,6539.37Z" style="fill-rule:nonzero;"/>
            <path d="M3818.85,6585.04L3818.85,6579.67C3818.85,6579.67 3814.37,6585.85 3804.53,6585.85C3791.72,6585.85 3781.33,6575.46 3781.33,6562.83C3781.33,6549.94 3791.72,6539.73 3804.53,6539.73C3814.37,6539.73 3818.85,6545.91 3818.85,6545.91L3818.85,6540.27L3827.54,6540.27L3827.54,6585.04L3818.85,6585.04ZM3804.7,6578.06C3812.49,6578.06 3818.67,6571.25 3818.67,6563.01C3818.67,6554.69 3812.49,6547.79 3804.7,6547.79C3796.91,6547.79 3790.74,6554.69 3790.74,6563.01C3790.74,6571.25 3796.91,6578.06 3804.7,6578.06Z" style="fill-rule:nonzero;"/>
            <path d="M3882.8,6548.5L3893.19,6548.5L3893.19,6540.27L3882.8,6540.27L3882.8,6520.73L3874.03,6523.42L3874.03,6540.27L3852.35,6540.27L3852.35,6530.23C3852.35,6525.57 3855.66,6522.17 3859.7,6522.17C3860.95,6522.17 3862.11,6522.43 3863.1,6523.15L3866.86,6515.46C3864.53,6514.47 3862.11,6513.94 3859.7,6513.94C3850.74,6513.94 3843.49,6521.27 3843.49,6530.32L3843.49,6540.27L3835.52,6540.27L3835.52,6548.5L3843.49,6548.5L3843.49,6585.04L3852.35,6585.04L3852.35,6548.5L3874.03,6548.5L3874.03,6570.54C3874.03,6580.66 3879.13,6585.76 3888.89,6585.76L3888.89,6576.81C3885.13,6576.81 3882.8,6574.66 3882.8,6570.54L3882.8,6548.5Z" style="fill-rule:nonzero;"/>
        </g>
    </g>
</svg>
