<?xml version="1.0" encoding="UTF-8" standalone="no"?>
<!DOCTYPE svg PUBLIC "-//W3C//DTD SVG 1.1//EN" "http://www.w3.org/Graphics/SVG/1.1/DTD/svg11.dtd">
<svg width="100%" height="100%" viewBox="0 0 1782 431" version="1.1" xmlns="http://www.w3.org/2000/svg" xmlns:xlink="http://www.w3.org/1999/xlink" xml:space="preserve" xmlns:serif="http://www.serif.com/" style="fill-rule:evenodd;clip-rule:evenodd;stroke-linejoin:round;stroke-miterlimit:2;">
    <g transform="matrix(1,0,0,1,-9797.49,-20028.6)">
        <g transform="matrix(2.65039,0,0,2.65039,397.309,3605.07)">
            <g transform="matrix(1,-1.11022e-16,1.11022e-16,1,554.887,483.049)">
                <path d="M3119.74,5787.4L3094.07,5772.58L3068.64,5787.38L3068.6,5802.16L3094.17,5816.93L3119.74,5802.16L3119.74,5787.4Z" style="fill:rgb(114,85,43);"/>
            </g>
            <g transform="matrix(1,-1.11022e-16,1.11022e-16,1,452.598,423.993)">
                <path d="M3119.74,5787.4L3094.17,5772.64L3094.17,5816.93L3119.74,5802.16L3119.74,5787.4Z" style="fill:rgb(114,85,43);"/>
            </g>
            <g transform="matrix(1,-1.11022e-16,1.11022e-16,1,503.749,512.586)">
                <path d="M3119.74,5787.4L3081.38,5765.25L3119.73,5743.1L3119.73,5728.34L3094.16,5713.57L3043.02,5743.1L3043.02,5787.39L3055.8,5794.78L3043.02,5802.16L3043.02,5846.45L3119.74,5802.16L3119.74,5787.4Z" style="fill:rgb(114,85,43);"/>
            </g>
            <g transform="matrix(1,-1.11022e-16,1.11022e-16,1,561.28,471.977)">
                <path d="M3113.34,5798.47L3087.78,5813.24L3087.77,5828L3113.34,5813.24L3113.34,5798.47Z" style="fill:rgb(114,85,43);"/>
            </g>
            <g transform="matrix(1,-1.11022e-16,1.11022e-16,1,467.206,550.537)">
                <path d="M3079.56,5793.73L3079.56,5808.5L3105.13,5793.73L3105.13,5778.97L3079.56,5793.73Z" style="fill:rgb(127,97,46);"/>
            </g>
            <g transform="matrix(0.5,-0.866025,0.866025,0.5,-2999.57,6108.05)">
                <path d="M3094.17,5802.16L3081.38,5809.55L3106.95,5824.31L3119.74,5816.93L3094.17,5802.16Z" style="fill:rgb(109,85,39);"/>
            </g>
            <g transform="matrix(0.5,-0.866025,0.866025,0.5,-2999.57,6048.99)">
                <path d="M3094.17,5802.16L3094.17,5816.93L3106.95,5824.31L3119.74,5816.93L3094.17,5802.16Z" style="fill:rgb(111,82,40);"/>
            </g>
            <g transform="matrix(-0.5,-0.866025,-0.866025,0.5,10221,6063.76)">
                <path d="M3094.17,5802.16L3081.38,5809.55L3106.95,5824.31L3119.74,5816.93L3094.17,5802.16Z" style="fill:rgb(62,48,28);"/>
            </g>
            <g transform="matrix(-1,-3.33067e-16,-3.33067e-16,1,6663.31,481.204)">
                <path d="M3116.54,5804.01L3090.97,5818.78L3103.76,5826.16L3116.54,5818.78L3116.54,5804.01Z" style="fill:rgb(62,48,28);"/>
            </g>
            <g transform="matrix(1,-1.11022e-16,1.11022e-16,1,465.386,416.612)">
                <path d="M3107,5794.76L3081.38,5809.55L3081.33,5824.34L3106.95,5809.54L3107,5794.76Z" style="fill:rgb(117,91,40);"/>
            </g>
            <g transform="matrix(0.5,-0.866025,0.866025,0.5,-2974,6034.23)">
                <path d="M3094.17,5802.16L3081.38,5809.55L3106.95,5824.31L3119.74,5816.93L3094.17,5802.16Z" style="fill:rgb(101,76,40);"/>
            </g>
            <g transform="matrix(0.5,-0.866025,0.866025,0.5,-2974,6093.29)">
                <path d="M3094.17,5802.16L3081.38,5809.55L3106.95,5824.31L3119.74,5816.93L3094.17,5802.16Z" style="fill:rgb(111,82,40);"/>
            </g>
            <g transform="matrix(2,0,0,2,-2667.14,-5304.35)">
                <path d="M3106.95,5809.55L3106.95,5824.31L3119.74,5816.93L3106.95,5809.55Z" style="fill:rgb(91,234,0);"/>
            </g>
            <g transform="matrix(2,0,0,2,-2667.14,-5422.46)">
                <path d="M3106.95,5809.55L3106.95,5824.31L3119.74,5816.93L3106.95,5809.55Z" style="fill:rgb(104,255,9);"/>
            </g>
            <g transform="matrix(-2,-2.44929e-16,-2.44929e-16,2,9786.24,-5319.12)">
                <path d="M3106.95,5809.55L3094.17,5816.93L3106.95,5824.31L3119.74,5816.93L3106.95,5809.55Z" style="fill:rgb(85,186,20);"/>
            </g>
            <g transform="matrix(-2,-2.44929e-16,-2.44929e-16,2,9786.24,-5348.64)">
                <path d="M3106.95,5809.55L3094.17,5816.93L3106.95,5824.31L3119.74,5816.93L3106.95,5809.55Z" style="fill:rgb(92,218,0);"/>
            </g>
            <g transform="matrix(2,0,0,2,-2667.14,-5363.41)">
                <path d="M3106.95,5809.55L3106.95,5824.31L3119.74,5816.93L3106.95,5809.55Z" style="fill:rgb(85,186,20);"/>
            </g>
            <g transform="matrix(2,0,0,2,-2641.57,-5378.17)">
                <path d="M3106.95,5809.55L3094.17,5816.93L3106.95,5824.31L3119.74,5816.93L3106.95,5809.55Z" style="fill:rgb(104,255,9);"/>
            </g>
            <g transform="matrix(-2,2.44929e-16,2.44929e-16,2,9811.81,-5333.88)">
                <path d="M3106.95,5809.55L3094.17,5816.93L3106.95,5824.31L3119.74,5816.93L3106.95,5809.55Z" style="fill:rgb(88,199,0);"/>
            </g>
            <g transform="matrix(2,0,0,2,-2615.99,-5392.93)">
                <path d="M3106.95,5809.55L3094.17,5816.93L3106.95,5824.31L3119.74,5816.93L3106.95,5809.55Z" style="fill:rgb(101,199,0);"/>
            </g>
            <g transform="matrix(2,0,0,2,-2564.85,-5363.41)">
                <path d="M3106.95,5809.55L3094.17,5816.93L3106.95,5824.31L3119.74,5816.93L3106.95,5809.55Z" style="fill:rgb(104,255,9);"/>
            </g>
        </g>
        <g transform="matrix(2.27677,0,0,2.27677,2589.87,5717.6)">
            <path d="M3365.25,6322.97L3356.44,6320.64C3352.29,6319.63 3349.66,6315.48 3349.66,6312.24C3349.66,6307.79 3354.01,6302.13 3360.29,6302.13C3366.26,6302.13 3370.61,6305.47 3370.61,6309.92L3381.73,6309.92C3381.73,6300.61 3371.62,6292.73 3360.29,6292.73C3347.95,6292.73 3338.95,6301.32 3338.95,6312.45C3338.95,6322.16 3347.24,6329.34 3356.14,6331.27C3362.11,6332.78 3363.33,6332.99 3365.25,6333.49C3371.12,6334.91 3375.87,6338.55 3375.87,6344.93C3375.87,6349.68 3371.02,6356.56 3361.2,6356.56C3353,6356.56 3346.93,6348.67 3346.93,6343.91L3335.21,6343.91C3335.21,6356.76 3347.54,6366.56 3362.21,6366.56C3376.28,6366.56 3386.89,6357.07 3386.89,6344.22C3386.89,6331.87 3378.1,6325.7 3365.25,6322.97L3365.25,6322.97Z" style="fill-rule:nonzero;"/>
            <path d="M3429.07,6352.1L3441.01,6352.1C3436.86,6360.49 3428.47,6366.16 3418.45,6366.16C3403.89,6366.16 3392.57,6354.32 3392.57,6339.97C3392.57,6325.5 3403.89,6313.67 3418.45,6313.67C3432.92,6313.67 3443.94,6325.5 3443.94,6339.97C3443.94,6341.28 3443.84,6342.6 3443.64,6343.82L3403.18,6343.82C3404.7,6351.49 3410.77,6357.15 3418.25,6357.15C3422.6,6357.15 3426.34,6355.33 3429.07,6352.1ZM3403.39,6335.61L3432.82,6335.61C3431.2,6328.33 3425.53,6322.98 3418.25,6322.98C3410.97,6322.98 3405.11,6328.33 3403.39,6335.61Z" style="fill-rule:nonzero;"/>
            <path d="M3475.5,6313.57C3468.52,6313.57 3463.97,6315.79 3461.44,6319.23L3461.44,6314.58L3451.44,6314.58L3451.44,6365.15L3461.44,6365.15L3461.44,6337.33C3461.44,6327.31 3468.22,6323.88 3475.5,6323.88C3476.71,6323.88 3478.23,6323.98 3479.75,6324.38L3479.75,6313.87C3478.33,6313.67 3476.91,6313.57 3475.5,6313.57Z" style="fill-rule:nonzero;"/>
            <path d="M3497.16,6314.57L3486.74,6314.57L3510.51,6366.06L3513.03,6366.06L3536.9,6314.57L3526.48,6314.57L3511.72,6345.93L3497.16,6314.57Z" style="fill-rule:nonzero;"/>
            <path d="M3574.43,6352.1L3586.37,6352.1C3582.22,6360.49 3573.83,6366.16 3563.81,6366.16C3549.25,6366.16 3537.92,6354.32 3537.92,6339.97C3537.92,6325.5 3549.25,6313.67 3563.81,6313.67C3578.28,6313.67 3589.3,6325.5 3589.3,6339.97C3589.3,6341.28 3589.2,6342.6 3588.99,6343.82L3548.54,6343.82C3550.06,6351.49 3556.13,6357.15 3563.61,6357.15C3567.96,6357.15 3571.7,6355.33 3574.43,6352.1ZM3548.74,6335.61L3578.17,6335.61C3576.56,6328.33 3570.89,6322.98 3563.61,6322.98C3556.33,6322.98 3550.46,6328.33 3548.74,6335.61Z" style="fill-rule:nonzero;"/>
            <path d="M3620.86,6313.57C3613.88,6313.57 3609.33,6315.79 3606.8,6319.23L3606.8,6314.58L3596.8,6314.58L3596.8,6365.15L3606.8,6365.15L3606.8,6337.33C3606.8,6327.31 3613.58,6323.88 3620.86,6323.88C3622.07,6323.88 3623.59,6323.98 3625.11,6324.38L3625.11,6313.87C3623.69,6313.67 3622.28,6313.57 3620.86,6313.57Z" style="fill-rule:nonzero;"/>
            <path d="M3667.2,6322.97L3658.39,6320.64C3654.24,6319.63 3651.61,6315.48 3651.61,6312.24C3651.61,6307.79 3655.96,6302.13 3662.24,6302.13C3668.21,6302.13 3672.56,6305.47 3672.56,6309.92L3683.68,6309.92C3683.68,6300.61 3673.57,6292.73 3662.24,6292.73C3649.89,6292.73 3640.9,6301.32 3640.9,6312.45C3640.9,6322.16 3649.18,6329.34 3658.09,6331.27C3664.06,6332.78 3665.27,6332.99 3667.2,6333.49C3673.07,6334.91 3677.82,6338.55 3677.82,6344.93C3677.82,6349.68 3672.96,6356.56 3663.15,6356.56C3654.95,6356.56 3648.88,6348.67 3648.88,6343.91L3637.16,6343.91C3637.16,6356.76 3649.49,6366.56 3664.16,6366.56C3678.23,6366.56 3688.84,6357.07 3688.84,6344.22C3688.84,6331.87 3680.04,6325.7 3667.2,6322.97L3667.2,6322.97Z" style="fill-rule:nonzero;"/>
            <path d="M3712.81,6323.88L3724.54,6323.88L3724.54,6314.58L3712.81,6314.58L3712.81,6292.53L3702.91,6295.56L3702.91,6314.58L3693.91,6314.58L3693.91,6323.88L3702.91,6323.88L3702.91,6350.59C3702.91,6362.02 3708.67,6366.66 3719.69,6366.66L3719.69,6356.56C3715.54,6356.56 3712.81,6355.24 3712.81,6350.59L3712.81,6323.88Z" style="fill-rule:nonzero;"/>
            <path d="M3769.66,6365.15L3769.66,6359.08C3769.66,6359.08 3764.6,6366.06 3753.48,6366.06C3739.02,6366.06 3727.29,6354.33 3727.29,6340.07C3727.29,6325.5 3739.02,6313.98 3753.48,6313.98C3764.6,6313.98 3769.66,6320.95 3769.66,6320.95L3769.66,6314.58L3779.47,6314.58L3779.47,6365.15L3769.66,6365.15ZM3753.68,6357.26C3762.48,6357.26 3769.46,6349.57 3769.46,6340.27C3769.46,6330.86 3762.48,6323.08 3753.68,6323.08C3744.88,6323.08 3737.91,6330.86 3737.91,6340.27C3737.91,6349.57 3744.88,6357.26 3753.68,6357.26Z" style="fill-rule:nonzero;"/>
            <path d="M3814.37,6313.57C3807.39,6313.57 3802.84,6315.79 3800.31,6319.23L3800.31,6314.58L3790.31,6314.58L3790.31,6365.15L3800.31,6365.15L3800.31,6337.33C3800.31,6327.31 3807.09,6323.88 3814.37,6323.88C3815.58,6323.88 3817.1,6323.98 3818.62,6324.38L3818.62,6313.87C3817.2,6313.67 3815.78,6313.57 3814.37,6313.57Z" style="fill-rule:nonzero;"/>
            <path d="M3845.52,6323.88L3857.26,6323.88L3857.26,6314.58L3845.52,6314.58L3845.52,6292.53L3835.62,6295.56L3835.62,6314.58L3826.62,6314.58L3826.62,6323.88L3835.62,6323.88L3835.62,6350.59C3835.62,6362.02 3841.38,6366.66 3852.4,6366.66L3852.4,6356.56C3848.26,6356.56 3845.52,6355.24 3845.52,6350.59L3845.52,6323.88Z" style="fill-rule:nonzero;"/>
            <path d="M3897.42,6352.1L3909.35,6352.1C3905.21,6360.49 3896.81,6366.16 3886.8,6366.16C3872.24,6366.16 3860.91,6354.32 3860.91,6339.97C3860.91,6325.5 3872.24,6313.67 3886.8,6313.67C3901.26,6313.67 3912.29,6325.5 3912.29,6339.97C3912.29,6341.28 3912.18,6342.6 3911.98,6343.82L3871.53,6343.82C3873.05,6351.49 3879.12,6357.15 3886.6,6357.15C3890.95,6357.15 3894.69,6355.33 3897.42,6352.1ZM3871.73,6335.61L3901.16,6335.61C3899.54,6328.33 3893.88,6322.98 3886.6,6322.98C3879.32,6322.98 3873.45,6328.33 3871.73,6335.61Z" style="fill-rule:nonzero;"/>
            <path d="M3943.85,6313.57C3936.87,6313.57 3932.31,6315.79 3929.79,6319.23L3929.79,6314.58L3919.78,6314.58L3919.78,6365.15L3929.79,6365.15L3929.79,6337.33C3929.79,6327.31 3936.56,6323.88 3943.85,6323.88C3945.06,6323.88 3946.58,6323.98 3948.1,6324.38L3948.1,6313.87C3946.68,6313.67 3945.26,6313.57 3943.85,6313.57Z" style="fill-rule:nonzero;"/>
            <path d="M3403.54,6429.63L3403.54,6421.41C3403.54,6417.59 3406.25,6414.8 3409.56,6414.8C3410.58,6414.8 3411.54,6415.02 3412.34,6415.61L3415.43,6409.3C3413.52,6408.5 3411.54,6408.06 3409.56,6408.06C3402.22,6408.06 3396.28,6414.07 3396.28,6421.48L3396.28,6429.63L3389.76,6429.63L3389.76,6436.37L3396.28,6436.37L3396.28,6466.3L3403.54,6466.3L3403.54,6436.37L3412.05,6436.37L3412.05,6429.63L3403.54,6429.63Z" style="fill-rule:nonzero;"/>
            <path d="M3433.04,6466.74C3422.62,6466.74 3414.19,6458.31 3414.19,6447.89C3414.19,6437.48 3422.62,6429.11 3433.04,6429.11C3443.45,6429.11 3451.82,6437.48 3451.82,6447.89C3451.82,6458.31 3443.45,6466.74 3433.04,6466.74ZM3432.89,6460.36C3439.12,6460.36 3444.19,6454.86 3444.19,6448.04C3444.19,6441.29 3439.12,6435.72 3432.89,6435.72C3426.58,6435.72 3421.6,6441.29 3421.6,6448.04C3421.6,6454.86 3426.58,6460.36 3432.89,6460.36Z" style="fill-rule:nonzero;"/>
            <path d="M3474.56,6428.9C3469.5,6428.9 3466.19,6430.51 3464.36,6433L3464.36,6429.63L3457.11,6429.63L3457.11,6466.3L3464.36,6466.3L3464.36,6446.13C3464.36,6438.86 3469.28,6436.37 3474.56,6436.37C3475.44,6436.37 3476.54,6436.44 3477.64,6436.74L3477.64,6429.11C3476.61,6428.97 3475.59,6428.9 3474.56,6428.9Z" style="fill-rule:nonzero;"/>
            <path d="M3585.42,6466.31L3576.62,6393.88L3573.39,6393.88L3548.71,6448.61L3524.23,6393.88L3521,6393.88L3512.2,6466.31L3521.81,6466.31L3527.77,6426.45L3547.19,6467.82L3550.43,6467.82L3569.85,6426.65L3575.82,6466.31L3585.42,6466.31Z" style="fill-rule:nonzero;"/>
            <path d="M3602.52,6402.08C3598.68,6402.08 3595.65,6399.15 3595.65,6395.51C3595.65,6391.97 3598.68,6389.03 3602.52,6389.03C3606.26,6389.03 3609.4,6391.97 3609.4,6395.51C3609.4,6399.15 3606.26,6402.08 3602.52,6402.08ZM3607.68,6415.82L3607.68,6466.3L3597.67,6466.3L3597.67,6415.82L3607.68,6415.82Z" style="fill-rule:nonzero;"/>
            <path d="M3643.9,6414.73C3636.91,6414.73 3632.36,6416.95 3629.83,6420.38L3629.83,6415.74L3619.83,6415.74L3619.83,6466.3L3629.83,6466.3L3629.83,6438.48C3629.83,6428.47 3636.61,6425.03 3643.9,6425.03C3647.95,6425.03 3654.93,6428.07 3654.93,6437.47L3654.93,6466.3L3664.93,6466.3L3664.93,6437.47C3664.93,6419.57 3653.21,6414.73 3643.9,6414.73Z" style="fill-rule:nonzero;"/>
            <path d="M3708.73,6453.25L3720.67,6453.25C3716.52,6461.65 3708.13,6467.31 3698.12,6467.31C3683.55,6467.31 3672.23,6455.48 3672.23,6441.12C3672.23,6426.66 3683.55,6414.83 3698.12,6414.83C3712.58,6414.83 3723.6,6426.66 3723.6,6441.12C3723.6,6442.44 3723.5,6443.75 3723.3,6444.97L3682.84,6444.97C3684.36,6452.65 3690.43,6458.31 3697.91,6458.31C3702.26,6458.31 3706,6456.49 3708.73,6453.25ZM3683.05,6436.76L3712.48,6436.76C3710.86,6429.49 3705.19,6424.13 3697.91,6424.13C3690.63,6424.13 3684.77,6429.49 3683.05,6436.76Z" style="fill-rule:nonzero;"/>
            <path d="M3766.69,6430.7L3778.02,6430.7C3774.38,6421.39 3765.88,6414.83 3755.16,6414.83C3740.8,6414.83 3728.97,6426.45 3728.97,6440.92C3728.97,6455.29 3740.8,6467.01 3755.16,6467.01C3766.09,6467.01 3774.58,6460.34 3778.12,6450.83L3767.1,6450.83C3764.57,6455.19 3760.32,6458.12 3755.06,6458.12C3746.26,6458.12 3739.28,6450.53 3739.28,6441.02C3739.28,6431.71 3746.26,6424.02 3755.06,6424.02C3760.02,6424.02 3764.16,6426.55 3766.69,6430.7Z" style="fill-rule:nonzero;"/>
            <path d="M3810.8,6414.73C3803.82,6414.73 3799.26,6416.95 3796.74,6420.38L3796.74,6415.74L3786.73,6415.74L3786.73,6466.3L3796.74,6466.3L3796.74,6438.48C3796.74,6428.47 3803.51,6425.03 3810.8,6425.03C3812.01,6425.03 3813.53,6425.13 3815.04,6425.54L3815.04,6415.03C3813.63,6414.83 3812.21,6414.73 3810.8,6414.73Z" style="fill-rule:nonzero;"/>
            <path d="M3862.08,6466.3L3862.08,6460.23C3862.08,6460.23 3857.03,6467.21 3845.9,6467.21C3831.44,6467.21 3819.71,6455.48 3819.71,6441.22C3819.71,6426.66 3831.44,6415.13 3845.9,6415.13C3857.03,6415.13 3862.08,6422.11 3862.08,6422.11L3862.08,6415.74L3871.89,6415.74L3871.89,6466.3L3862.08,6466.3ZM3846.11,6458.41C3854.9,6458.41 3861.88,6450.73 3861.88,6441.42C3861.88,6432.02 3854.9,6424.23 3846.11,6424.23C3837.31,6424.23 3830.33,6432.02 3830.33,6441.42C3830.33,6450.73 3837.31,6458.41 3846.11,6458.41Z" style="fill-rule:nonzero;"/>
            <path d="M3934.31,6425.03L3946.04,6425.03L3946.04,6415.74L3934.31,6415.74L3934.31,6393.67L3924.41,6396.71L3924.41,6415.74L3899.91,6415.74L3899.91,6404.4C3899.91,6399.14 3903.66,6395.29 3908.21,6395.29C3909.63,6395.29 3910.94,6395.59 3912.06,6396.4L3916.31,6387.71C3913.68,6386.6 3910.94,6386 3908.21,6386C3898.09,6386 3889.91,6394.28 3889.91,6404.5L3889.91,6415.74L3880.91,6415.74L3880.91,6425.03L3889.91,6425.03L3889.91,6466.3L3899.91,6466.3L3899.91,6425.03L3924.41,6425.03L3924.41,6449.92C3924.41,6461.35 3930.16,6467.11 3941.18,6467.11L3941.18,6457.01C3936.93,6457.01 3934.31,6454.58 3934.31,6449.92L3934.31,6425.03Z" style="fill-rule:nonzero;"/>
        </g>
    </g>
</svg>
