<?xml version="1.0" encoding="UTF-8" standalone="no"?>
<!DOCTYPE svg PUBLIC "-//W3C//DTD SVG 1.1//EN" "http://www.w3.org/Graphics/SVG/1.1/DTD/svg11.dtd">
<svg width="100%" height="100%" viewBox="0 0 3782 300" version="1.1" xmlns="http://www.w3.org/2000/svg" xmlns:xlink="http://www.w3.org/1999/xlink" xml:space="preserve" xmlns:serif="http://www.serif.com/" style="fill-rule:evenodd;clip-rule:evenodd;stroke-linejoin:round;stroke-miterlimit:2;">
    <g transform="matrix(1,0,0,1,-434.565,-10205.7)">
        <g transform="matrix(1.84372,0,0,1.84372,-6104.58,-1219.1)">
            <g transform="matrix(1,-1.11022e-16,1.11022e-16,1,554.887,483.049)">
                <path d="M3119.74,5787.4L3094.07,5772.58L3068.64,5787.38L3068.6,5802.16L3094.17,5816.93L3119.74,5802.16L3119.74,5787.4Z" style="fill:rgb(114,85,43);"/>
            </g>
            <g transform="matrix(1,-1.11022e-16,1.11022e-16,1,452.598,423.993)">
                <path d="M3119.74,5787.4L3094.17,5772.64L3094.17,5816.93L3119.74,5802.16L3119.74,5787.4Z" style="fill:rgb(114,85,43);"/>
            </g>
            <g transform="matrix(1,-1.11022e-16,1.11022e-16,1,503.749,512.586)">
                <path d="M3119.74,5787.4L3081.38,5765.25L3119.73,5743.1L3119.73,5728.34L3094.16,5713.57L3043.02,5743.1L3043.02,5787.39L3055.8,5794.78L3043.02,5802.16L3043.02,5846.45L3119.74,5802.16L3119.74,5787.4Z" style="fill:rgb(114,85,43);"/>
            </g>
            <g transform="matrix(1,-1.11022e-16,1.11022e-16,1,561.28,471.977)">
                <path d="M3113.34,5798.47L3087.78,5813.24L3087.77,5828L3113.34,5813.24L3113.34,5798.47Z" style="fill:rgb(114,85,43);"/>
            </g>
            <g transform="matrix(1,-1.11022e-16,1.11022e-16,1,467.206,550.537)">
                <path d="M3079.56,5793.73L3079.56,5808.5L3105.13,5793.73L3105.13,5778.97L3079.56,5793.73Z" style="fill:rgb(127,97,46);"/>
            </g>
            <g transform="matrix(0.5,-0.866025,0.866025,0.5,-2999.57,6108.05)">
                <path d="M3094.17,5802.16L3081.38,5809.55L3106.95,5824.31L3119.74,5816.93L3094.17,5802.16Z" style="fill:rgb(109,85,39);"/>
            </g>
            <g transform="matrix(0.5,-0.866025,0.866025,0.5,-2999.57,6048.99)">
                <path d="M3094.17,5802.16L3094.17,5816.93L3106.95,5824.31L3119.74,5816.93L3094.17,5802.16Z" style="fill:rgb(111,82,40);"/>
            </g>
            <g transform="matrix(-0.5,-0.866025,-0.866025,0.5,10221,6063.76)">
                <path d="M3094.17,5802.16L3081.38,5809.55L3106.95,5824.31L3119.74,5816.93L3094.17,5802.16Z" style="fill:rgb(62,48,28);"/>
            </g>
            <g transform="matrix(-1,-3.33067e-16,-3.33067e-16,1,6663.31,481.204)">
                <path d="M3116.54,5804.01L3090.97,5818.78L3103.76,5826.16L3116.54,5818.78L3116.54,5804.01Z" style="fill:rgb(62,48,28);"/>
            </g>
            <g transform="matrix(1,-1.11022e-16,1.11022e-16,1,465.386,416.612)">
                <path d="M3107,5794.76L3081.38,5809.55L3081.33,5824.34L3106.95,5809.54L3107,5794.76Z" style="fill:rgb(117,91,40);"/>
            </g>
            <g transform="matrix(0.5,-0.866025,0.866025,0.5,-2974,6034.23)">
                <path d="M3094.17,5802.16L3081.38,5809.55L3106.95,5824.31L3119.74,5816.93L3094.17,5802.16Z" style="fill:rgb(101,76,40);"/>
            </g>
            <g transform="matrix(0.5,-0.866025,0.866025,0.5,-2974,6093.29)">
                <path d="M3094.17,5802.16L3081.38,5809.55L3106.95,5824.31L3119.74,5816.93L3094.17,5802.16Z" style="fill:rgb(111,82,40);"/>
            </g>
            <g transform="matrix(2,0,0,2,-2667.14,-5304.35)">
                <path d="M3106.95,5809.55L3106.95,5824.31L3119.74,5816.93L3106.95,5809.55Z" style="fill:rgb(91,234,0);"/>
            </g>
            <g transform="matrix(2,0,0,2,-2667.14,-5422.46)">
                <path d="M3106.95,5809.55L3106.95,5824.31L3119.74,5816.93L3106.95,5809.55Z" style="fill:rgb(104,255,9);"/>
            </g>
            <g transform="matrix(-2,-2.44929e-16,-2.44929e-16,2,9786.24,-5319.12)">
                <path d="M3106.95,5809.55L3094.17,5816.93L3106.95,5824.31L3119.74,5816.93L3106.95,5809.55Z" style="fill:rgb(85,186,20);"/>
            </g>
            <g transform="matrix(-2,-2.44929e-16,-2.44929e-16,2,9786.24,-5348.64)">
                <path d="M3106.95,5809.55L3094.17,5816.93L3106.95,5824.31L3119.74,5816.93L3106.95,5809.55Z" style="fill:rgb(92,218,0);"/>
            </g>
            <g transform="matrix(2,0,0,2,-2667.14,-5363.41)">
                <path d="M3106.95,5809.55L3106.95,5824.31L3119.74,5816.93L3106.95,5809.55Z" style="fill:rgb(85,186,20);"/>
            </g>
            <g transform="matrix(2,0,0,2,-2641.57,-5378.17)">
                <path d="M3106.95,5809.55L3094.17,5816.93L3106.95,5824.31L3119.74,5816.93L3106.95,5809.55Z" style="fill:rgb(104,255,9);"/>
            </g>
            <g transform="matrix(-2,2.44929e-16,2.44929e-16,2,9811.81,-5333.88)">
                <path d="M3106.95,5809.55L3094.17,5816.93L3106.95,5824.31L3119.74,5816.93L3106.95,5809.55Z" style="fill:rgb(88,199,0);"/>
            </g>
            <g transform="matrix(2,0,0,2,-2615.99,-5392.93)">
                <path d="M3106.95,5809.55L3094.17,5816.93L3106.95,5824.31L3119.74,5816.93L3106.95,5809.55Z" style="fill:rgb(101,199,0);"/>
            </g>
            <g transform="matrix(2,0,0,2,-2564.85,-5363.41)">
                <path d="M3106.95,5809.55L3094.17,5816.93L3106.95,5824.31L3119.74,5816.93L3106.95,5809.55Z" style="fill:rgb(104,255,9);"/>
            </g>
        </g>
        <g transform="matrix(2.85897,0,0,2.85897,-6914.28,-7738.45)">
            <text x="2676px" y="6365.15px" style="font-family:'Simpel-Medium', 'Simpel';font-weight:500;font-size:102.018px;">S<tspan x="2735.27px 2794.44px 2835.97px 2887.99px 2947.16px 2988.69px 3047.96px 3086.01px 3146.41px 3187.93px 3225.98px 3285.15px " y="6365.15px 6365.15px 6365.15px 6365.15px 6365.15px 6365.15px 6365.15px 6365.15px 6365.15px 6365.15px 6365.15px 6365.15px ">erverStarter</tspan></text>
            <text x="3342.8px" y="6365.15px" style="font-family:'Simpel-Medium', 'Simpel';font-weight:500;font-size:62.006px;"><tspan x="3342.8px 3366.36px 3402.32px " y="6365.15px 6365.15px 6365.15px ">for</tspan></text>
            <g transform="matrix(102.018,0,0,102.018,3821.25,6365.15)">
                <path d="M0.588,-0.408L0.704,-0.408L0.704,-0.5L0.588,-0.5L0.588,-0.718L0.49,-0.688L0.49,-0.5L0.248,-0.5L0.248,-0.612C0.248,-0.664 0.285,-0.702 0.33,-0.702C0.344,-0.702 0.357,-0.699 0.368,-0.691L0.41,-0.777C0.384,-0.788 0.357,-0.794 0.33,-0.794C0.23,-0.794 0.149,-0.712 0.149,-0.611L0.149,-0.5L0.06,-0.5L0.06,-0.408L0.149,-0.408L0.149,-0L0.248,-0L0.248,-0.408L0.49,-0.408L0.49,-0.162C0.49,-0.049 0.547,0.008 0.656,0.008L0.656,-0.092C0.614,-0.092 0.588,-0.116 0.588,-0.162L0.588,-0.408Z" style="fill-rule:nonzero;"/>
            </g>
            <g transform="matrix(102.018,0,0,102.018,3821.25,6365.15)">
            </g>
            <g transform="matrix(102.018,0,0,102.018,3858.01,6365.15)">
            </g>
            <g transform="matrix(102.018,0,0,102.018,3894.09,6365.15)">
            </g>
            <text x="3443.68px" y="6365.15px" style="font-family:'Simpel-Medium', 'Simpel';font-weight:500;font-size:102.018px;">M<tspan x="3522.95px 3548.96px 3604.05px 3663.22px 3719.33px 3760.85px " y="6365.15px 6365.15px 6365.15px 6365.15px 6365.15px 6365.15px ">inecra</tspan></text>
        </g>
    </g>
</svg>
